<?xml version="1.0" encoding="utf-8"?>
<!-- Generator: Adobe Illustrator 27.5.0, SVG Export Plug-In . SVG Version: 6.00 Build 0)  -->
<svg version="1.1" xmlns="http://www.w3.org/2000/svg" xmlns:xlink="http://www.w3.org/1999/xlink" x="0px" y="0px"
	 viewBox="0 0 1148.4 1091.6" style="enable-background:new 0 0 1148.4 1091.6;" xml:space="preserve">
<style type="text/css">
	.st0{fill:#FFC52E;}
	.st1{fill:none;stroke:#EC1C24;stroke-width:4;stroke-miterlimit:10;stroke-dasharray:16.0348,8.0174;}
	.st2{fill:#00C7E5;stroke:#00B6B9;stroke-miterlimit:10;}
	.st3{opacity:0.22;}
	.st4{fill:#231F20;}
	.st5{fill:#EDE2DC;}
	.st6{fill:#D3AC90;}
	.st7{fill:#C7402E;}
	.st8{fill:#1595A0;}
	.st9{fill:#061527;}
	.st10{fill:none;}
	.st11{fill:none;stroke:#FF1100;stroke-width:35;stroke-miterlimit:10;}
</style>
<g id="Layer_1">
	<g>
		<circle class="st0" cx="571.1" cy="541.2" r="463.2"/>
		<g>
			
				<image style="overflow:visible;opacity:0.6;" width="4102" height="4103" xlink:href="B031F657.png"  transform="matrix(0.24 0 0 0.24 78.7822 50.8222)">
			</image>
			<circle class="st1" cx="571.1" cy="541.2" r="463.2"/>
		</g>
	</g>
	<polygon class="st2" points="574.8,305.7 425.3,357.2 343.7,439 318.5,561.8 341.7,693.9 456.3,783.6 567.2,820 704.2,783.6 
		797.9,701.6 820.9,574 805.8,439 704.2,345.6 	"/>
	<g>
		<path d="M211.3,639.1c1.6-0.6,3.2-0.7,4.7-0.6c1.6,0.2,3.1,0.6,4.4,1.4c1.4,0.8,2.6,1.8,3.7,3.2c1.1,1.3,2,2.9,2.6,4.7
			c0.6,1.8,0.9,3.6,0.9,5.3c0,1.7-0.3,3.3-0.9,4.8s-1.5,2.8-2.6,3.9c-1.1,1.1-2.5,1.9-4.1,2.5c-1.6,0.5-3.2,0.7-4.7,0.6
			c-1.6-0.2-3.1-0.6-4.4-1.4c-1.4-0.8-2.6-1.8-3.7-3.2c-1.1-1.3-2-2.9-2.6-4.7c-0.6-1.8-0.9-3.6-0.9-5.3c0-1.7,0.3-3.3,0.9-4.8
			c0.6-1.5,1.5-2.8,2.6-3.9C208.4,640.5,209.8,639.7,211.3,639.1z"/>
		<path d="M256.1,732.4c0.7,1.6,1.2,3.2,1.4,4.7c0.2,1.5,0.2,2.9-0.1,4.3c-0.3,1.3-0.8,2.6-1.6,3.7c-0.8,1.1-1.9,2.1-3.3,3
			c-1,0.6-2.1,1.1-3.4,1.4c-1.3,0.3-2.7,0.4-4.2,0.3c-1.5-0.1-3.1-0.6-4.7-1.3c-1.6-0.7-3.3-1.8-5-3.4c-1.3-1.2-2.6-2.6-3.8-4.2
			c-1.2-1.6-2.6-3.7-4.1-6.1l-7.6-12.4l42.6-26.2l7.3,11.9c0.7,1.1,1.3,2.1,1.8,3s1,1.8,1.4,2.6c0.4,0.8,0.7,1.5,1,2.2
			c0.3,0.7,0.6,1.4,0.8,2c0.6,1.7,0.9,3.4,1,5c0.1,1.6,0,3.1-0.3,4.5c-0.3,1.4-0.9,2.7-1.7,3.8c-0.8,1.1-1.9,2.1-3.2,2.9
			c-1,0.6-2.1,1.1-3.2,1.4c-1.1,0.3-2.3,0.4-3.5,0.3c-1.2-0.1-2.4-0.5-3.6-1.1c-1.2-0.6-2.5-1.4-3.8-2.6L256.1,732.4z M242.7,716.3
			l-14.8,9.1l4.4,7.1c1,1.7,2.1,3.2,3.1,4.6c1,1.4,2,2.5,2.9,3.3c1,0.9,2,1.6,3,2.1c1,0.5,1.9,0.7,2.8,0.8c0.9,0.1,1.7,0,2.5-0.2
			c0.8-0.2,1.6-0.5,2.3-1c0.8-0.5,1.5-1.1,2.1-1.7c0.6-0.7,1-1.4,1.3-2.2c0.3-0.8,0.4-1.8,0.3-2.9c-0.1-1.1-0.4-2.3-0.9-3.6
			c-0.3-0.8-0.7-1.7-1.2-2.7s-1.2-2.1-2-3.5L242.7,716.3z M252.9,722.4c0.7,1.2,1.4,2.1,2,2.9s1.2,1.5,1.8,2
			c1.6,1.5,3.3,2.3,4.9,2.4s3.2-0.3,4.7-1.2c1.6-1,2.6-2.2,3.1-3.7c0.5-1.5,0.4-3.3-0.3-5.5c-0.3-1.1-0.8-2.2-1.5-3.5
			c-0.6-1.3-1.5-2.7-2.5-4.4l-4.1-6.6l-13.8,8.5L252.9,722.4z"/>
		<path d="M267.8,783.7c1.3,1.6,2.7,2.8,4,3.8c1.4,1,2.7,1.6,4.1,2c1.4,0.4,2.7,0.6,4,0.5s2.7-0.4,3.9-0.9c0.8-0.3,1.6-0.8,2.5-1.3
			c0.8-0.6,1.6-1.1,2.4-1.8l23.7-20l4.5,5.3l-23.6,19.9c-0.9,0.8-1.9,1.5-2.9,2.2c-1.1,0.7-2.1,1.3-3.2,1.8
			c-1.8,0.8-3.6,1.3-5.5,1.4c-1.9,0.2-3.8,0-5.8-0.6c-2-0.6-4-1.6-6.1-3c-2.1-1.4-4.1-3.4-6.2-5.9c-2-2.4-3.5-4.7-4.6-6.8
			c-1.1-2.2-1.7-4.3-2-6.2c-0.3-2-0.2-3.8,0.2-5.6c0.4-1.8,1.1-3.4,2-5c0.7-1.1,1.5-2.2,2.5-3.3c1-1.1,2-2,3-2.9l23.6-19.9l4.5,5.3
			l-23.7,20c-0.9,0.7-1.7,1.5-2.5,2.4s-1.4,1.8-1.9,2.7c-1.2,2.3-1.6,4.8-1.2,7.5C263.9,778,265.3,780.8,267.8,783.7z"/>
		<path d="M321.9,816.5l-13.3,15.1l-5.2-4.6l13.3-15.1l4.3-36.1l5.7,5l-3.7,29.1l0.2,0.1l28.4-7.3l5.7,5L321.9,816.5z"/>
		<path d="M377.2,851.2c0.8-1.5,1.9-2.6,3.2-3.6s2.7-1.5,4.3-1.9c1.5-0.3,3.2-0.4,4.9-0.1c1.7,0.3,3.4,0.9,5.1,1.8
			c1.7,0.9,3,2.1,4.2,3.4c1.1,1.3,2,2.7,2.5,4.2c0.5,1.5,0.7,3,0.6,4.6c-0.1,1.6-0.6,3.1-1.4,4.6c-0.8,1.5-1.9,2.6-3.2,3.6
			c-1.3,0.9-2.7,1.5-4.3,1.9c-1.5,0.3-3.2,0.4-4.9,0.1c-1.7-0.3-3.4-0.9-5.1-1.8c-1.7-0.9-3-2.1-4.2-3.4s-2-2.7-2.5-4.2
			c-0.5-1.5-0.7-3-0.6-4.6C375.9,854.2,376.4,852.6,377.2,851.2z"/>
		<path d="M452.6,873.7c-0.4,1.4-0.5,2.7-0.1,3.8c0.4,1.1,1,2.1,1.9,3.1s2,1.8,3.3,2.7c1.3,0.8,2.7,1.7,4.2,2.5
			c2,1.1,3.9,2.3,5.7,3.5s3.4,2.5,4.7,4c1.3,1.5,2.2,3.1,2.7,5c0.5,1.9,0.4,4-0.4,6.4c-0.8,2.5-2,4.4-3.6,5.9
			c-1.6,1.5-3.6,2.5-5.8,3c-2.2,0.6-4.7,0.7-7.5,0.5c-2.7-0.3-5.6-0.9-8.7-1.8c-1.4-0.4-2.8-1-4.2-1.6c-1.4-0.6-2.8-1.3-4-2
			c-1.3-0.7-2.4-1.4-3.3-2c-1-0.7-1.7-1.3-2.2-1.8l1.7-5.3c0.8,0.7,1.8,1.5,2.9,2.2c1.1,0.7,2.3,1.4,3.5,2.1s2.5,1.3,3.7,1.8
			c1.3,0.6,2.5,1,3.7,1.4c1.9,0.6,3.7,1,5.5,1.3c1.8,0.3,3.5,0.3,5,0c1.5-0.3,2.8-0.8,3.9-1.8c1.1-0.9,2-2.2,2.5-4
			c0.4-1.4,0.5-2.7,0.1-3.8c-0.4-1.1-1-2.2-1.9-3.1c-0.9-1-2-1.9-3.4-2.7c-1.3-0.8-2.7-1.7-4.2-2.5c-2-1.1-3.9-2.2-5.7-3.4
			c-1.8-1.2-3.4-2.5-4.7-3.9c-1.3-1.4-2.2-3.1-2.7-4.9c-0.5-1.8-0.4-3.9,0.4-6.2c0.8-2.4,1.9-4.4,3.5-5.8c1.6-1.4,3.4-2.4,5.5-3
			c2.1-0.6,4.3-0.8,6.7-0.7s4.9,0.6,7.4,1.4c2.9,0.9,5.5,2,7.9,3.3c2.3,1.3,4.4,2.6,6.3,4.1l-1.7,5.4c-2-1.5-4.1-2.9-6.3-4.2
			c-2.2-1.3-4.7-2.4-7.4-3.2c-2.1-0.6-3.9-1-5.5-1.1c-1.6-0.1-3.1,0.1-4.3,0.5c-1.2,0.4-2.2,1.1-3.1,1.9S453,872.4,452.6,873.7z"/>
		<path d="M494.1,917.4l28.7,5.1l-1,5.4l-35.5-6.3l8.8-49.2l34,6l-1,5.4L501,879l-2.8,15.9l24.1,4.3l-1,5.4l-24.1-4.3L494.1,917.4z"
			/>
		<path d="M547.2,879.9l-2.3,44.5l27.7,1.4l-0.3,5.5l-34.6-1.8l2.5-50L547.2,879.9z"/>
		<path d="M590.3,880.5l3.1,44.4l27.7-1.9l0.4,5.5l-34.6,2.4l-3.5-49.9L590.3,880.5z"/>
		<path d="M664.6,895.2c-0.5-1.6-0.5-3.2-0.3-4.8c0.3-1.6,0.8-3,1.7-4.3c0.9-1.3,2-2.5,3.4-3.5c1.4-1,3-1.8,4.8-2.3
			c1.8-0.5,3.6-0.7,5.3-0.6c1.7,0.1,3.3,0.5,4.7,1.2c1.4,0.7,2.7,1.6,3.7,2.8c1,1.2,1.8,2.6,2.2,4.2c0.5,1.6,0.5,3.2,0.3,4.8
			c-0.3,1.6-0.8,3-1.7,4.3c-0.9,1.3-2,2.5-3.4,3.5c-1.4,1-3,1.8-4.8,2.3c-1.8,0.5-3.6,0.7-5.3,0.6c-1.7-0.1-3.3-0.5-4.7-1.2
			c-1.4-0.7-2.7-1.6-3.7-2.8C665.8,898.2,665,896.8,664.6,895.2z"/>
		<path d="M760.3,885.5l-6.2,3.1L734,848.9l-16.9,8.6l-2.5-4.9l40-20.3l2.5,4.9l-16.9,8.6L760.3,885.5z"/>
		<path d="M782.5,848.9l11.8,17l-5.7,3.9l-28.4-41.2l12.1-8.4c2-1.4,3.8-2.5,5.4-3.4c1.5-0.9,3-1.6,4.4-2.1
			c3.8-1.5,7.2-1.9,10.2-1.2c3,0.7,5.5,2.4,7.4,5.2c1.1,1.7,1.9,3.4,2.2,5.1c0.3,1.7,0.2,3.5-0.2,5.2s-1.2,3.4-2.3,5.1
			c-1.1,1.7-2.5,3.3-4.2,4.9l0.1,0.1l26,8l-5.7,3.9l-26.2-7.1L782.5,848.9z M768.9,829.3l10.4,15.1l5.6-3.9c1.7-1.2,3.2-2.3,4.4-3.2
			c1.2-1,2.1-1.9,2.9-2.8c1.6-1.9,2.5-3.8,2.8-5.7c0.3-1.9-0.3-3.8-1.6-5.7c-1.2-1.7-2.7-2.8-4.5-3.2c-1.7-0.4-3.7-0.2-5.8,0.6
			c-1,0.4-2.1,0.9-3.3,1.6c-1.2,0.7-2.8,1.7-4.5,2.9L768.9,829.3z"/>
		<path d="M829.8,840.9l-17.1-52.4l4.4-4.1l51,20.9l-5.5,5.1l-15.2-6.4l-17.4,16.2l5.3,15.7L829.8,840.9z M820.1,792.2
			c2.4,6.3,4.5,12.1,6.2,17.4l1.6,4.9l13.8-12.8l-4.8-2c-5.2-2.2-10.8-4.7-16.8-7.6L820.1,792.2z"/>
		<path d="M885.9,743.3c2.3,1.8,4.2,3.8,5.7,6.1c1.5,2.2,2.5,4.6,3.1,7.2c0.6,2.6,0.7,5.3,0.3,8.2c-0.4,2.9-1.3,5.9-2.7,9
			c-0.8,1.8-1.8,3.6-3,5.4c-1.2,1.8-2.6,3.8-4.2,5.8l-8,10.1L837.9,764l8.1-10.2c1.6-2,3.2-3.8,4.7-5.5c1.5-1.6,3.1-3,4.6-4.2
			c2.7-2.1,5.4-3.6,8.1-4.7s5.3-1.6,7.9-1.6s5.1,0.4,7.6,1.3C881.3,740.2,883.7,741.5,885.9,743.3z M881.7,748.7
			c-3.8-3-7.6-4.5-11.4-4.4c-3.8,0-7.6,1.4-11.4,4.2c-1.4,1.1-2.9,2.4-4.3,3.9c-1.5,1.6-3,3.4-4.7,5.5l-3.3,4.2l30.6,24.2l3.3-4.2
			c1.7-2.1,3.1-4,4.3-5.8c1.2-1.8,2.1-3.5,2.8-5.1c1.8-4.3,2.3-8.4,1.3-12.2C887.8,755.1,885.5,751.7,881.7,748.7z"/>
		<path d="M913.5,736.2l14.7-25.1l4.7,2.8l-18.2,31.1l-43.2-25.3l17.4-29.8l4.7,2.8l-13.9,23.8l13.9,8.2l12.4-21.1l4.7,2.8
			l-12.4,21.1L913.5,736.2z"/>
		<path d="M930.3,658.1c-1.6-0.5-3-1.3-4.1-2.4c-1.1-1.1-2-2.4-2.7-3.8c-0.6-1.5-1-3.1-1-4.8c-0.1-1.7,0.2-3.5,0.8-5.3
			c0.6-1.8,1.4-3.4,2.5-4.7c1.1-1.4,2.3-2.4,3.7-3.2c1.4-0.8,2.8-1.3,4.4-1.5c1.6-0.2,3.2,0,4.7,0.5c1.6,0.5,3,1.3,4.1,2.4
			c1.1,1.1,2,2.4,2.7,3.8c0.6,1.5,1,3.1,1,4.8c0.1,1.7-0.2,3.5-0.8,5.3c-0.6,1.8-1.4,3.4-2.5,4.7c-1.1,1.4-2.3,2.4-3.7,3.2
			c-1.4,0.8-2.8,1.3-4.4,1.5C933.4,658.8,931.9,658.6,930.3,658.1z"/>
	</g>
</g>
<g id="Layer_2">
	<g>
		<g>
			<g>
				<g class="st3">
					<path class="st4" d="M697.6,786.9c1.5-1.3,22.7-17.2,24.2-18.7c14.5-1.6,19.3-15,32.2-24.3c13-9.4,18.4-12.4,26.2-26.7
						c4.8-8.7,14.8-18.8,17.3-28.8c6-23.2,17.8-31,1.9-56.6c-12-19.3-29.3-36.9-48-49.2c1-10.9-2-21.2-8.8-29.6
						c2-16-1.4-29.8-10.3-41.1C715,490,683,486.1,669.8,485.4c-4.8-3-10-5.4-15.4-7c-1.5-5.2-3.9-11.4-7.7-17.8
						c-6.4-10.7-17.9-23.4-37.8-29.2c7.1-15.3,10.9-34.7,11.4-58.1c0.5-24.7-2.9-44.7-3.3-46.9l-1-5.6l-4.5-3.5
						c-1.8-1.4-44.3-34-95.3-49.2c-26.6-7.9-48.9-4.3-63,0.1c-14.7,4.6-23.7,11-25.4,12.2l-7.4,5.6l1.8,9.1
						c3.7,18.3,13.9,33.8,30.4,46.3c9.4,7.1,21,13.2,34.3,18.1c-7.2-0.5-14.1-1.3-17.4-1.8l-5.9-0.8l-4.9,3.6
						c-3.4,2.5-34.4,26.3-59.6,76.1c-11.8,23.2-15.8,44.4-12,63.2c3,14.9,10,22.9,11.4,24.4l6.1,6.4l8.5-2.3
						c14.4-3.9,28.3-12.8,41.2-26.4c9.7-10.2,19-23.1,27.5-38.4c7.5-13.4,13.1-26.1,16.9-35.5c5.8,3.2,10.4,7.4,13.8,11.2
						c-9.8,5.1-17.9,12-23.9,20.5c-7.5,10.6-11.8,23.5-12.6,38.2c-0.6,11.2,0.9,21.5,2.5,28.8c-2.7,2.3-5.6,5.1-8.4,8.5
						c-10.1,12.7-13.3,28.2-9.2,44.2c-1,3.2-1.9,7.1-2.1,11.6c0.6,12.6,4.3,25.7,7.1,31.1c3.5,6.7,11,6.7,17,6.7l6.5,27.4l19.7,21.2
						c0,0-4.2,15.5-10.7,34.8c-8.4,25.1-19,56.9-12.2,72c1.3,5.3,3.2,10.2,5.8,14.9c1.9,3.4,4.1,6.6,6.6,9.5 M555.5,410.5
						c-6-13.9-13.9-24.3-20.4-31.3c-3.7-3.9-7.2-7.2-10.4-9.8c10.2,1.8,19.1,2.8,25.5,3.3C554.5,386.5,555.6,399.8,555.5,410.5z"/>
				</g>
			</g>
			<g>
				<path class="st5" d="M707.7,791.5c1.5-1.3,3-2.7,4.5-4.3c14.5-1.6,21.2-20.1,34.1-29.4c13-9.4,24.7-15.9,32.4-30.2
					c4.8-8.7,15.4-11.3,17.9-21.3c6-23.2,0.8-49-15.1-74.5c-12-19.3-29.3-36.9-48-49.2c1-10.9-2-21.2-8.8-29.6
					c2-16-1.4-29.8-10.3-41.1C697,490,665,486.1,651.8,485.4c-4.8-3-10-5.4-15.4-7c-1.5-5.2-3.9-11.4-7.7-17.8
					c-6.4-10.7-17.9-23.4-37.8-29.2c7.1-15.3,10.9-34.7,11.4-58.1c0.5-24.7-2.9-44.7-3.3-46.9l-1-5.6l-4.5-3.5
					c-1.8-1.4-44.3-34-95.3-49.2c-26.6-7.9-48.9-4.3-63,0.1c-14.7,4.6-23.7,11-25.4,12.2l-7.4,5.6l1.8,9.1
					c3.7,18.3,13.9,33.8,30.4,46.3c9.4,7.1,21,13.2,34.3,18.1c-7.2-0.5-14.1-1.3-17.4-1.8l-5.9-0.8l-4.9,3.6
					c-3.4,2.5-34.4,26.3-59.6,76.1c-11.8,23.2-15.8,44.4-12,63.2c3,14.9,10,22.9,11.4,24.4l6.1,6.4l8.5-2.3
					c14.4-3.9,28.3-12.8,41.2-26.4c9.7-10.2,19-23.1,27.5-38.4c7.5-13.4,13.1-26.1,16.9-35.5c5.8,3.2,10.4,7.4,13.8,11.2
					c-9.8,5.1-17.9,12-23.9,20.5c-7.5,10.6-11.8,23.5-12.6,38.2c-0.6,11.2,0.9,21.5,2.5,28.8c-2.7,2.3-5.6,5.1-8.4,8.5
					c-10.1,12.7-13.3,28.2-9.2,44.2c-1,3.2-1.9,7.1-2.1,11.6c0.6,12.6,4.3,25.7,7.1,31.1c3.5,6.7,11,6.7,17,6.7l6.5,27.4l19.7,21.2
					c0,0-4.2,15.5-10.7,34.8c-8.4,25.1-19,56.9-12.2,72c1.3,5.3,3.2,10.2,5.8,14.9c1.9,3.4,4.1,6.6,6.6,9.5 M537.5,410.5
					c-6-13.9-13.9-24.3-20.4-31.3c-3.7-3.9-7.2-7.2-10.4-9.8c10.2,1.8,19.1,2.8,25.5,3.3C536.5,386.5,537.6,399.8,537.5,410.5z"/>
			</g>
			<path class="st6" d="M666.9,785.8c-7.6,8.2-17.9,11.9-30.9,11c-5.7-0.4-10.9-1.6-14.8-2.8c9.5-10,17.3-19.6,21.7-25.1
				C647.3,773.7,655.4,780.9,666.9,785.8z M577.9,608.9c-4.7,1.1-9.4,1.5-14,1.3c-1.7,5.6-2.7,12.4-3.3,18.7
				c3.7-0.9,8.8-3.7,12-11.7l0.9-2.2l2.2-0.7c0.1,0,8.1-2.6,17.2-9.3c9.8-7.2,17-16.2,21.3-26.7C605,595.1,592.8,605.4,577.9,608.9z
				 M519.3,589.7c-4.1,6.3-18.7,26.8-34.9,26.8c-3,0-6.1-0.7-9.2-2.3c-9.4-5-14.4-11.8-14.7-20.1c-0.3-6.5,2.4-11.8,2.4-11.8l1-1.9
				l-0.1-0.2c0.9-1.8,2.8-5.1,5.8-8.3c5.9-6,13.3-8.6,22.2-7.7c9,5.4,18.3,7.5,23.4,8.3C516.2,579.5,518.2,586.3,519.3,589.7z
				 M498.5,589.4c-0.7-2.7-3.5-4.3-6.2-3.6l-17.3,4.6l17.1,5.2C495.8,596.8,499.6,593.2,498.5,589.4z M498.1,574l-17.4-4l12.7,12.6
				c2.7,2.8,7.7,1.4,8.5-2.5C502.5,577.4,500.8,574.7,498.1,574z M488.9,536c-2.4-0.6-5-0.5-7.3,0.3l-2,1
				c-0.9,0.5-19.3,9.9-18.8,29.7c0.5-0.6,1.1-1.3,1.7-1.9c5.3-5.4,14.3-11.4,28-10.8c0.3-0.6,0.7-1.2,1.1-1.7c0-4.8,0.9-9.5,2.6-14
				C492.7,537.4,490.9,536.5,488.9,536z M580.2,331.7c-7.8-5.8-45-32.2-87.3-44.8c-17.4-5.2-34.6-5.2-51.2-0.1
				c-8.1,2.5-14.1,5.7-17.3,7.6c4.9,18.5,19.4,33,43.2,43.4c-12.2-7-22.5-15.5-27.7-25.8l-1.9-3.6l3.2-2.5
				c0.9-0.7,21.4-15.8,63.7-0.7c40.6,14.5,69.7,36.6,71,37.5l1.5,1.1l0.4,1.8c0.1,0.5,2.2,11.7,1.4,29.1
				c-0.7,14.7-3.8,36.7-14.1,60.2c0.3,0.1,0.5,0.2,0.8,0.2C590,405.7,581.9,343.3,580.2,331.7z M503,392.9c-7-7.6-13.4-12-16-13.6
				c-12.6,1-29.9-1-35.9-1.8c-6.4,5.2-31.7,27.4-52.3,68c-18.4,36.2-9.7,56.5-5.6,63c45.5-15.7,72.7-95.9,74.2-100.7
				c0.7-3.3,4.1-16.4,12.2-20.7c3.2-1.7,6.8-1.9,10.4-0.4c6.3,2.6,14.7,10.7,22.4,21.7c3.6,5.2,6.7,10.3,9.2,15.3
				C517.5,412.2,511.3,401.9,503,392.9z M656.6,550.6c-9.4,16.5-29.2,17.6-38.6,17.1c0.8-7.2-0.7-17.2-9.7-25
				c2.2-4.4,8.5-12.5,25.5-12.6c1.5,3.1,2.4,6.6,3.1,10.1c4.8-3.2,6.3-9.8,4.6-15.2c-3-9.4-14.7-13.5-23.2-9c2.2,1.8,4.7,3.3,7,4.9
				c-10.2,1.7-16.6,6-20.4,9.9c-5.7,5.8-7,11.8-7.2,12.5l-0.7,3.2l2.6,1.8c5.2,3.7,8.1,8.4,8.6,14c0.3,3.9-0.6,7-0.8,7.7
				c-8.1,16.4-18.8,26.2-31.8,29.3c-20.7,4.9-41.8-8.5-46.9-12c-1-3.1-3.4-10.9-4.1-18.1c9-12.1,21.2-20.8,21.4-20.9l2.8-2
				c0.3-0.2,0.5-0.3,0.8-0.5c8.4-5.1,18.2-7.8,28-8.4c1.7-0.2,3.4-0.1,5.2-0.2c-0.8-0.3-1.7-0.5-2.5-0.8
				c-11.6-3.6-25.5-2.9-36.8,2.2c-6.5-3.5-17-4.5-26.9-2.3c-4,0.9-7.7,2.2-11.1,4c3.5-7.1,9.1-12.8,17.2-15.8
				c13.4-5.2,28.5-2.4,41.5,3.2c-2.7-2.7-5.9-4.9-9.3-6.9c-1.6-0.9-3.2-1.7-4.8-2.5c2.2-1.3,4.2-3,6-4.9c2.5,3.8,6.3,6.1,10.5,6.1
				c7.6,0,13.8-7.8,13.8-17.5c0-7.1-3.4-13.3-8.2-16c2.5-5.1,5-10.2,8.9-14.1c2.5-2.5,6.4-3.3,9.8-2c2.3,0.9,4,2.7,5.4,5.2
				c0.4-6.1-4.6-10.7-10.5-11.2c-5.4-0.6-10.3,2.6-13.8,6.5c-7.1,8.2-11.8,17.5-17.3,26.6c-2.6,4.2-5.1,8.3-8.7,11.6
				c-2.8,2.4-5.4,3-9,2.1c-2-0.5-3.9-1.1-5.2-2.8c-2.9-4.2-2.1-10.9-1.5-16c-5.7,6.2-8.3,15.9-3.4,22.4c-2.9,0.2-5.7,0.8-8.5,1.6
				c0,0-0.1-0.1-0.1-0.1c-2.7-2.1-4.6-5.1-5.7-8.3c-1.7-4.7-1.3-10.3,0.9-14.9c-6,6.5-7.3,16.4-3.9,24.6c0.3,0.7,0.6,1.4,0.9,2
				c-0.2,0.1-0.4,0.2-0.6,0.3c-5.4-2.9-9.1-8.1-11.7-13.9c-2.2-4.5-3.7-9.8-6.2-14.6c-2.5-4.9-5.9-5.2-8.4-0.1
				c0.9-0.6,1.8-1.2,2.7-1.5c0.4-0.2,0.9-0.2,1.1-0.1c0.8,0.6,0.9,2,1.2,3c0.8,5.3,1.4,10.6,2.8,15.8c-1.6,2.6-2.6,6.1-2.6,10
				c0,7.7,3.8,13.9,8.5,14.1c-0.8,1.3-1.5,2.6-2.1,3.9c-2.7-3.7-6.6-6.5-11.3-7.5c-1-0.2-2-0.4-3-0.5c-1.5-5.3-4.2-16.8-3.5-29.4
				c1.1-18.6,9-32.3,23.5-40.8c-0.1,1-0.2,2-0.2,3c-0.1,4.8,1,9.8,3.6,13.7c-0.5-2.2-0.6-4.5-0.4-6.6c0.2-2.1,0.8-4.2,1.6-6.2
				c1.3-3.3,3.2-6.2,5.5-8.8l0.3-0.2c9-7.3,19.6-11,31.7-11c2.4,0,4.8,0.1,7.2,0.4c2.9,0.3,5.7,0.9,8.2,1.4
				c-10.7,6.5-18,17.8-21.2,30.3c3.5-7.3,8.6-13.9,15-18.7c5.7-4.4,12.7-6.9,19.9-7l0.2,0c17.7,1.1,30.9,8.6,39.2,22.2
				c3.7,6.2,5.6,12.3,6.6,16.3c-1.7,0.3-3.3,0.8-4.9,1.3c-10,3.3-18.2,11.3-21.8,21.1c4-5,9.1-9,14.9-11.3c4.5-1.7,9.3-2.5,14.1-2.3
				l2.9,0.3c13.6,1.3,26.1,9.9,32.7,22.4C662,529.1,662.1,540.9,656.6,550.6z M548.7,566.9c1.9,2,5.1,2.2,7.1,0.3l14.8-13.7
				l-19.5,5.1C547.5,559.4,546.1,564.2,548.7,566.9z M577,576.5l-19.6-4.5c-3.6-0.9-7.1,2.6-6,6.2c0.7,2.7,3.5,4.3,6.2,3.5
				L577,576.5z"/>
			<g>
				<path class="st5" d="M577.9,608.9c-4.7,1.1-9.4,1.5-14,1.3c-1.7,5.6-2.7,12.4-3.3,18.7c3.7-0.9,8.8-3.7,12-11.7l0.9-2.2l2.2-0.7
					c0.1,0,8.1-2.6,17.2-9.3c9.8-7.2,17-16.2,21.3-26.7C605,595.1,592.8,605.4,577.9,608.9z"/>
				<path class="st5" d="M656.6,550.6c5.5-9.6,5.4-21.4-0.3-32.3c-6.5-12.6-19.1-21.2-32.7-22.4l-2.9-0.3c-4.8-0.2-9.6,0.6-14.1,2.3
					c-5.9,2.2-10.9,6.3-14.9,11.3c-5.6,9.9-0.3,16.1-2.6,24.5c-2.3,8.4-6.3,3.6-6.3,3.6c-1.7,0.1-3.5,0-5.2,0.2
					c-9.9,0.6-19.6,3.3-28,8.4c-0.3,0.2-0.5,0.3-0.8,0.5l-2.8,2c-0.1,0.1-12.4,8.7-21.4,20.9c0.7,7.2,3.1,15,4.1,18.1
					c5.1,3.5,26.3,16.9,46.9,12c13-3.1,23.7-12.9,31.8-29.3c0.2-0.7,1.2-3.9,0.8-7.7c-0.5-5.6-3.4-10.3-8.6-14l-2.6-1.8l0.7-3.2
					c0.1-0.7,1.5-6.7,7.2-12.5c3.8-3.9,10.2-8.2,20.4-9.9c-2.3-1.6-4.8-3.1-7-4.9c8.5-4.5,20.2-0.4,23.2,9c1.7,5.4,0.3,12-4.6,15.2
					c-0.7-3.5-1.6-7-3.1-10.1c-17,0.1-23.3,8.2-25.5,12.6c8.9,7.9,10.5,17.8,9.7,25C627.4,568.1,647.3,567,656.6,550.6z
					 M551.1,558.6l19.5-5.1l-14.8,13.7c-2,1.9-5.2,1.8-7.1-0.3C546.1,564.2,547.5,559.4,551.1,558.6z M557.6,581.8
					c-2.7,0.7-5.5-0.9-6.2-3.5c-1-3.6,2.4-7.1,6-6.2l19.6,4.5L557.6,581.8z"/>
				<path class="st5" d="M515.2,572.5c-5.1-0.8-14.4-2.9-23.4-8.3c-8.8-0.9-16.3,1.7-22.2,7.7c-3.1,3.1-4.9,6.4-5.8,8.3l0.1,0.2
					l-1,1.9c0,0-2.7,5.3-2.4,11.8c0.4,8.3,5.3,15.1,14.7,20.1c3.1,1.6,6.1,2.3,9.2,2.3c16.2,0,30.8-20.5,34.9-26.8
					C518.2,586.3,516.2,579.5,515.2,572.5z M492.1,595.6l-17.1-5.2l17.3-4.6c2.7-0.7,5.5,0.9,6.2,3.6
					C499.6,593.2,495.8,596.8,492.1,595.6z M501.9,580.1c-0.8,3.9-5.8,5.3-8.5,2.5L480.6,570l17.4,4
					C500.8,574.7,502.5,577.4,501.9,580.1z"/>
			</g>
			<path class="st5" d="M489.9,496.3c0,0-8.6,11.2-6.1,22c2.5,10.9,8.8,14.4,13.7,13.8C502.4,531.5,489.9,496.3,489.9,496.3z"/>
			<path class="st5" d="M551.2,513.5c0,0,7.9,12.3,21.3,4.6s20.2-27.6,3.2-41.4L551.2,513.5z"/>
			<g>
				<g>
					<path class="st7" d="M533.7,545.6c-4.7,4-11.1,10-16.5,17.3c-3.5-0.5-10.2-1.9-17-5.3c5.5-7.6,13.8-10.5,18.7-11.6
						C524.2,544.8,529.6,544.8,533.7,545.6z"/>
					<path class="st8" d="M684.7,802.5c-2.8-15.7-3-6-3.3-12.3c1.8,0.3,3.7,0.6,5.6,0.8l0.4,0l0.4,0c0.1,0,0.1,0,0.2,0"/>
					<path class="st8" d="M500.1,812.3c6.2,3.8,13.3,6.4,21.2,7.6c3.9,3.7,16.8,9.9,35.5,9.9c4.9,0,9.4,2.9,15.2,1.3
						c13.1-3.8,28.4-16.1,41.6-29.2c4.2,1.6,12.2,4.1,21.4,4.7c1.5,0.1,3,0.2,4.5,0.2c15.4,0,28.1-5.8,37-17
						c0.2,6.2-12.5,0.9-9.5,17.5"/>
					<path class="st7" d="M694.2,777.2c-3.6,2.9-6,3.8-6.8,4c-1.6-0.2-3.1-0.4-4.6-0.7l3.7-4.7C689,776.4,691.6,776.9,694.2,777.2z"
						/>
					<path class="st7" d="M681.4,774.4l-3.8,4.9c-1.5-0.4-2.9-0.9-4.3-1.5l4.1-4.8C678.6,773.5,680,773.9,681.4,774.4z"/>
					<path class="st7" d="M672.5,771l-4,4.7c-1.9-0.9-3.7-1.9-5.4-2.9l3.9-4.6C668.8,769.2,670.7,770.1,672.5,771z"/>
					<path class="st7" d="M662.9,765.6l-3.8,4.5c-1.6-1.2-3.1-2.3-4.4-3.5l3.8-4.4C659.8,763.4,661.3,764.6,662.9,765.6z"/>
					<path class="st7" d="M654.8,759l-3.7,4.3c-1.5-1.5-2.6-2.7-3.3-3.6l-1.2-1.5c-0.1-0.1-6.2-7.9-5-16.5c0.2-1.4,0.6-2.8,1.2-4.2
						c1.2,6.2,4.1,12.3,8.9,18.1C652.6,756.8,653.7,757.9,654.8,759z"/>
					<path class="st7" d="M544,658.1c-0.9,0.9-1.6,2-2.3,3c-2.6-1.7-6-2.7-10.1-1.7c1-0.4,1.9-0.9,2.6-1.6
						C536.7,658.5,539.9,658.8,544,658.1z"/>
					<path class="st7" d="M579.3,659.9c0,2.8-0.8,4.7-2.3,6c-1.2,1-2.7,1.4-4,1.6c-1-5.4-5-13.2-14.6-14.6l1.5-0.8l-0.1-3.1
						c0-0.1,0-1.6,0-4c4.1-0.3,8.9,0.9,12.8,3.6C575.1,650.3,579.4,654.1,579.3,659.9z"/>
					<path class="st7" d="M529.2,660.2c-4.9,2-7.9,6.1-9.7,9.4c-1.8-0.7-3.6-1.4-5.2-2.1c0.4-2.2,1.4-5,3.5-7.4l1.1,0.2
						c1.7,0.3,3.4,0.5,5.2,0.5C525.8,660.8,527.6,660.6,529.2,660.2z"/>
					<path class="st7" d="M514.2,656.8c-2.5,2.7-3.8,5.9-4.5,8.6c-11.2-5.5-18.8-12.5-22.8-20.7c-3.6-7.5-3.3-14.3-2.6-18.3h0.2
						c5.2,0,10.5-1.4,15.8-4.3C501.9,631.5,505.9,647.2,514.2,656.8z"/>
					<path class="st7" d="M776.3,695.5c-3.6,19.7-13.7,38.4-28.7,51.8c-12.4,11.1-28.2,18.9-44.9,18.8c-14.9-0.3-31-5.6-41.5-16.3
						c-6.1-6.2-9.4-14.5-8.6-23.2l0.2-1.7l0.3-1.7c0.1-1,0.6-2.5,0.8-3.5c0.3-1.3,0.8-2.6,1.2-3.8c1.7,1.7,3.5,3.3,5.4,4.9
						c13.7,11.2,32.4,17.2,49.9,13.8c-8.2-0.9-15.9-2.9-23.2-6.3c-7.7-3.7-14.7-8.7-20.9-14.7c9.3,4.5,19.5,7.2,29.8,7.2
						c7.2-0.1,14.4-1.6,20.8-4.9l2.3-1.3c1.1-0.7,2.2-1.5,3.3-2.2c1-0.8,2.1-1.7,3-2.5c1.9-1.7,3.6-3.6,5.2-5.6
						c-0.7,0.5-2.4,1.6-3.2,2.1c-3.2,1.9-6.5,3.6-10,4.8c-19.9,6.8-40.6-2.4-57.5-12.8c-0.5-0.8-1.3-2.2-1.3-2.2
						c-12.1-19.8-20.8-42.1-10.6-64.7c4.6-10.4,12.4-19.1,21.1-26.5c-10.2,5.9-19.4,13.9-25.6,24.1c-8.3,13.5-9.8,29.8-6.3,45.1
						c-6.3-4.4-11.1-11-13.9-18.2c-2.7-7-3.9-14.3-4-21.9c-3.1,20.4,2.5,40.8,21,52.1c0.4,0.2,0.7,0.4,1.1,0.6
						c1.8,4.3,4,8.3,6.6,12.1c0.8,1.1,1.5,2.2,2.4,3.2c-4,6.5-6.8,13.3-8.1,20.1c-6.3,5.1-9.9,11.2-10.9,18.1
						c-1.2,8.7,2.4,16.4,4.8,20.6c-8.8,11.3-43.3,53.8-67.4,60.6c-4.8,1.4-9.2,1.9-13.3,1.9c-6.6,0-12.1-1.5-16.5-3.4
						c7.1-1,14.1-3.2,20.2-6.9c-6.1,0.4-12.1,0.5-18.1,0c-5.2-0.4-10.3-1.3-15.4-2.5l-0.2-0.2l-1.8-0.2
						c-14.8-1.9-26.4-9.3-32.8-20.8c-7.2-13-7-29.9,0.5-46.2c12.2-26.4,15.6-54.5,16.6-67.7c2.6,1.2,5.4,2.3,8.4,3.4
						c-6.4,62,7.9,97.1,10.6,103.1c0.4,4,2.5,17.8,10.9,22.5c6.3,3.5,12.6,1.8,16.8-0.7c3,1.6,6.7,2.9,10.6,2.9c3,0,6-0.8,8.7-2.8
						c9.3-6.9,1.3-23.1-1.4-28c-10.2-57-2-96.3-0.3-103.6c2.3-0.2,5.1-0.9,7.3-2.8c2.7-2.2,4.1-5.5,4.1-9.7
						c0.1-5.9-3.1-11.5-8.8-15.4c-4.7-3.2-10.3-4.7-15.5-4.4c0-0.4,0-0.8,0-1.2c6.6-0.9,15.5-4.8,20.8-16c3.4-1.3,10.1-4.3,17.6-9.7
						c12.7-9.2,21.8-21.5,26.6-35.7c2.1-0.1,4.4-0.3,6.8-0.7c15.2-2.3,26.7-9.7,33.3-21.4c7.2-12.6,7.1-27.8-0.1-41.7
						c-1.4-2.8-3.1-5.4-5-7.8c12,1.7,29.5,6.2,38.9,18.1c5.3,6.7,7.5,15.2,6.4,25.4c-7.8-4.3-17.2-6.6-26.5-6.6
						c12.1,4.8,26,12.2,31.4,24.5c1.9,4.4,2.6,9.2,2.4,14.1c0,0.3,0,0.6,0,0.8c-8.4-3.9-17.3-6.7-26.6-7.8c-4.4-0.4-9-0.2-13.3,0.5
						c-35.7,6-67.6,44.6-84.4,74.6c21.7-25.9,63.3-71.6,100.1-64.2c25,5.3,46.6,22.2,62.9,41.5C766.6,645.5,780.3,670.7,776.3,695.5
						z"/>
				</g>
			</g>
			<g>
				<path class="st5" d="M516.4,734.4c-1.1-11.2-1.5-24.3-0.8-39.3c-0.3,0.1-0.7,0.3-1,0.4c0,4.6,0,6.9,0,11.5
					c-3.3,1.4-4.9,2.2-8.1,3.9c0-4.6,0-6.9,0-11.5c-0.4,0.2-0.8,0.5-1.2,0.7c-1.6,8.4-3.8,17.7-7.1,27.3c0,4.3,0,8.5,0,12.8
					c-1.1,2.3-1.6,3.4-2.7,5.7c4.6-3.1,9.1-5.7,14-8.3c-1.2-1-1.8-1.4-2.9-2.3c0-6.8,0-13.6,0-20.5c3.2-1.7,4.8-2.5,8.1-3.9
					c0,8.1,0,16.2,0,24.3C515.2,734.9,515.8,734.6,516.4,734.4z"/>
				<path class="st5" d="M593.2,731.7c-1.2-1.9-1.8-2.9-3-4.8c0-6.1,0-12.2,0-18.3c0-2.5-2.1-5.2-4.6-5.8c2.6,0.7,4.6-0.7,4.6-3.2
					c0-3.4,0-5.1,0-8.4c-6.7-1.9-13.3-3.1-20.1-3.9c-1.3,9.5-2.4,22.8-2.1,39.4c2.5,0.2,5,0.5,7.6,0.8c-1.3-1.7-1.9-2.6-3.2-4.3
					c0-6.8,0-13.6,0-20.5c3.2,0.4,4.9,0.7,8.1,1.4c0.4,0.7,0.6,1.5,0.6,2.3c0,7.4,0,14.8,0,22.2C586,729.4,588.4,730.1,593.2,731.7z
					 M579.8,700c-3-0.6-4.4-0.8-7.4-1.2c0-3.1,0-4.6,0-7.7c3.5,0.5,5.2,0.7,8.6,1.5c0,1.9,0,2.8,0,4.6
					C581.1,698.4,580.6,699.3,579.8,700z"/>
				<path class="st5" d="M593.3,731.7c8.4,3.1,16.1,6.8,23.8,11.4c2.3,1.5,4.1,0.7,4.1-1.8c0-5.3,0-10.7,0-16
					c-3.2-2.3-4.8-3.3-8.2-5.2c0,5.6,0,11.1,0,16.7c-3.1-1.8-4.7-2.6-8-4.2c0-6.8,0-13.6,0-20.5c3.2,1.5,4.8,2.4,8,4.2
					c0-1.5,0-2.3,0-3.9c-3.1-1.8-4.7-2.6-8-4.2c0-2.8,0-4.2,0-7c0-0.2,0-0.5-0.1-0.8c3.3,1.5,4.9,2.4,8,4.2c0,1.6,0,2.4,0,4
					c3.3,1.9,5,3,8.2,5.2c0-1.3,0-1.9,0-3.2c0-2.5-1.8-5.8-4.1-7.3c-7.7-4.6-15.4-8.3-23.8-11.4c1.2,1.9,1.8,2.9,3,4.9
					c0,3.1,0,4.6,0,7.7c-1.2-0.4-1.8-0.7-3-1.1c1.2,1.9,1.8,2.9,3,4.9c0,6.8,0,13.6,0,20.5C595.1,730,594.5,730.6,593.3,731.7z"/>
			</g>
			<path class="st5" d="M515.6,434.2c-5.9-8.7-17.8-22.5-37.4-28.6c1.4-4.2,3.7-8.7,6-10c0.6-0.3,1.1-0.4,2.1,0
				C494.5,399,509.8,418.8,515.6,434.2z M568.4,349.4c-6.5-4.7-32.8-22.8-66.7-34.9c-19.4-6.9-33.2-6.7-41.4-5.3
				c-4,0.7-7,1.7-9.2,2.6c8,11.2,25.3,21.7,50.5,30.6c20.2,7.2,38.9,10.9,41.7,11.4l2.8,0.1l1.2,3c13.2,32.3,10,63.6,7.9,76.1
				c0,0,0,0,0,0C573,393.5,569.6,357.8,568.4,349.4z M567.9,788.6c-0.2-0.7-0.5-1.3-0.7-2c-0.2,0.1-0.3,0.2-0.5,0.3
				c-2.8,1.3-6.1,1.4-9.9,0.4c0.4,2.3,1,4.9,2,7.4c2.1,1.2,6.9,3.6,9.8,1.4C569.1,795.8,569.5,793.5,567.9,788.6z M547.1,788.7
				c-1.2,0.3-2.5,0.5-3.8,0.5c-1.4,0-3-0.2-4.6-0.5c1,3.4,2.5,6.4,4.4,7.4c2,1.1,4.1,0.8,5.7,0.1C548,793.5,547.4,791,547.1,788.7z
				 M563.4,669.5c-0.3-1.9-1.6-6.5-6.9-7.1c-5.7-0.6-8.1,7.2-8.5,8.4c-0.6,3.5-8.2,54.6,7.5,105.4c3.6,1.9,6,2.2,7,1.7
				c0.3-0.1,0.6-0.4,0.7-0.7C552.5,716.8,561.6,676.4,563.4,669.5z M535.9,704.1c0.1-16.6,1.6-28.8,2.3-33.2
				c-0.8-1.1-2.4-2.5-4.5-1.9c-4,1.1-6.2,6.4-6.7,7.8c-3.9,34.3-1.1,60.2,2,75.8c2.6,13.2,5.8,21.6,7.1,24.7c5,2.5,7.7,2.3,9,1.9
				c0.4-0.1,0.7-0.3,1-0.5C537.4,750.5,535.7,722.7,535.9,704.1z M532.4,600.9c-1.1,6.9-1.6,13.8-1.8,20.8c-0.1,2.9-0.1,7-0.1,10
				c-3.4-9.6-6.3-19.4-8.1-29.4c0,0,0-0.1,0-0.1c-2.7,3.5-6.1,7.5-10.1,11.2c-1,0.9-2,1.8-3.1,2.7c1.2,8.8,5.1,26.3,12.8,34.8
				c2.5,0.2,5.1,0,6-0.5l2.2-10.2l5.9,7.9c0.8,0.4,4.8,2.1,13.9-2c0-7,0.4-24,4.1-37.2C545.6,607.1,538.1,603.9,532.4,600.9z"/>
			<g>
				<path class="st5" d="M400,505.5c-2.9-7.5-6.8-23.6,2.2-44.5c12.6-29.3,52.3-77.6,52.3-77.6s26.8,1.4,32.4-4.2
					c-12.6,1-29.9-1-35.9-1.8c-6.4,5.2-31.7,27.4-52.3,68c-18.4,36.2-9.7,56.5-5.6,63C395.5,507.6,397.8,506.6,400,505.5z"/>
				<path class="st5" d="M441.7,286.8c-8.1,2.5-14.1,5.7-17.3,7.6c0.8,3,1.9,6,3.2,8.8c5.3-4.4,23.4-17,55.1-13.8
					c38.3,3.8,97.5,42.3,97.5,42.3c-7.8-5.8-45-32.2-87.3-44.8C475.4,281.8,458.2,281.7,441.7,286.8z"/>
			</g>
			<g>
				<path class="st5" d="M481.6,536.3l-2,1c-0.9,0.5-19.3,9.9-18.8,29.7c0.5-0.6,1.1-1.3,1.7-1.9c1.2-1.3,2.7-2.6,4.4-3.8
					c5.7-14.9,17.7-24.7,22.9-24.9c-0.3-0.1-0.7-0.2-1-0.3C486.5,535.5,483.9,535.5,481.6,536.3z"/>
				<path class="st5" d="M550.6,442.1c-2.5-0.3-4.9-0.4-7.2-0.4c-12.1,0-22.7,3.7-31.7,11l-0.3,0.2c-2.2,2.5-4,5.3-5.3,8.3
					c20.1-10.6,37.1-11.8,45-11.7c2.3-2.3,4.9-4.3,7.7-6C556.3,443,553.5,442.5,550.6,442.1z"/>
				<path class="st5" d="M501.1,464.1c-0.1-1.1-0.1-2.1-0.1-3.2c0-1,0.1-2,0.2-3c-14.5,8.5-22.4,22.2-23.5,40.8
					c-0.7,12.6,1.9,24,3.5,29.4C481.1,528,472.5,481.8,501.1,464.1z"/>
				<path class="st5" d="M527.4,523.1c-1.5,0.4-3,0.9-4.5,1.4c-8.1,3-13.7,8.7-17.2,15.8c3-1.5,6.2-2.8,9.7-3.6
					C517.9,532.3,522,526.8,527.4,523.1z"/>
				<path class="st5" d="M572.6,448.1l-0.2,0c-7.2,0.1-14.2,2.6-19.9,7c-1.9,1.5-3.7,3.1-5.4,4.8c6.1-3.3,20.4-9.5,36.5-6.4
					c9.1,1.8,16.4,5.1,21.6,8.3C597.2,453.6,586.3,448.9,572.6,448.1z"/>
			</g>
			<g>
				<path class="st5" d="M712.6,581.4c0.2-4.9-0.4-9.6-2.4-14.1c-3.9-9-12.4-15.3-21.4-20c0,0,12.3,12.6,16,31.7
					c2.6,1,5.2,2,7.7,3.2C712.6,581.9,712.6,581.7,712.6,581.4z"/>
				<path class="st5" d="M751.3,626.8c-16.2-19.3-37.9-36.2-62.9-41.5c-13.3-2.6-27.2,1.6-40.6,9.3c0.2-0.1,31.3-13.6,63.1,5.7
					c27.8,16.8,51.5,43.9,63.6,68.7C770.3,653.5,761.2,638.8,751.3,626.8z"/>
				<path class="st5" d="M665,513.7c0.3,0.6,0.6,1.2,0.9,1.8c10.9,1.9,28.7,6.4,37.2,15.5c-1.1-2.5-2.4-4.9-4.1-7
					c-9.5-12-26.9-16.5-38.9-18.1C661.9,508.3,663.5,510.9,665,513.7z"/>
			</g>
		</g>
		<g>
			<path class="st5" d="M506.2,815.5c-2.1-1-4.2-2-6.2-3.2"/>
		</g>
	</g>
	<path class="st9" d="M697.6,786.9c2.9-2,6.2-4.9,9.9-9.1c29.5-1.7,55.7-22.7,69.6-48.1c4.5-8.1,7.8-16.8,10-25.8
		c11.7-44.9-27.3-94.8-64.4-116.4c3.2-13.1-0.8-23.8-8.5-31.4c2.9-15.2,0.3-28-7.6-38.1c-16.3-20.7-50-22.7-57.9-22.9
		c-6.1-4.3-13-7.3-20.3-8.5c-0.9-4.6-3.1-12.7-8-20.9c-6.7-11.2-19.8-24.8-44.8-27.1c10.7-14.9,16.4-36.8,17-65.4
		c0.5-24.3-3-44.1-3.1-45l-0.3-1.9l-1.5-1.2c-1.7-1.3-42.7-32.9-92.1-47.6c-24.2-7.2-44.5-4-57.3,0c-13.9,4.4-22.1,10.5-22.5,10.7
		l-2.5,1.9l0.6,3c3.2,15.9,12.2,29.4,26.7,40.4c11.3,8.5,26,15.5,43.6,20.6c24.1,7,46.8,8.8,55.1,9.2c11,29.4,7.8,58.1,6,68.5
		c-3.8-0.1-7.4,0.1-11,0.6c-4.9-22-15.8-37.4-24.4-46.6c-10-10.8-19.1-15.8-19.5-16l-1.3-0.7l-1.5,0.2c-13.9,1.4-37-1.9-37.2-1.9
		l-2-0.3l-1.6,1.2c-1.3,1-32,23.9-56.7,72.6c-25.8,50.8-3.2,75.4-2.3,76.5l2,2.1l2.8-0.8c12.7-3.5,25-11.4,36.7-23.7
		c9.1-9.6,17.9-21.9,26.1-36.4c10.4-18.5,17.1-35.8,19.9-43.7c18.9,6,29.7,20.6,33.9,27.4c-1,0.7-2.1,1.5-3.1,2.3
		c-23.6,9.3-36.8,27.9-38.2,53.7c-0.8,13.8,2.1,26.2,3.8,32.2c-3.1,2.1-7.7,5.6-11.8,10.7c-6.2,7.8-12.2,20.7-6.6,38.4
		c-1.1,2.7-2.8,8-2.6,14.2c0.2,8.4,3.9,20.3,19.9,28.8c1.3,0.7,2.6,1.3,4,1.8c-0.9,11.3-1.3,16.9,3.3,24.1c5.1,8,11.1,16,21.1,22
		c-0.1,1.7-0.2,4-0.5,7c-4.3,38.5-26.9,63.5-21.6,98.5c0.9,6.5,2.9,12.6,6,18.2c2.4,4.3,5.3,8.1,8.7,11.4 M424.4,294.5
		c3.2-1.9,9.2-5.1,17.3-7.6c16.6-5.1,33.8-5,51.2,0.1c42.4,12.6,79.5,39,87.3,44.8c1.8,11.6,9.8,73.9-14.4,103.6
		c-0.3-0.1-0.5-0.2-0.8-0.2c10.3-23.5,13.4-45.5,14.1-60.2c0.9-17.4-1.3-28.7-1.4-29.1l-0.4-1.8l-1.5-1.1c-1.2-0.9-30.4-23-71-37.5
		c-42.3-15.1-62.9,0.1-63.7,0.7l-3.2,2.5l1.9,3.6c5.2,10.2,15.5,18.8,27.7,25.8C443.8,327.5,429.3,312.9,424.4,294.5z M546.1,353.8
		l-2.8-0.1c-2.8-0.5-21.5-4.2-41.7-11.4c-25.2-8.9-42.5-19.4-50.5-30.6c2.2-0.9,5.2-1.9,9.2-2.6c8.2-1.4,22-1.6,41.4,5.3
		c33.9,12.1,60.2,30.2,66.7,34.9c1.2,8.4,4.6,44.1-13.2,83.5c0,0,0,0,0,0c2.1-12.5,5.3-43.7-7.9-76.1L546.1,353.8z M467.4,407.7
		c-1.6,4.7-28.7,85-74.2,100.7c-4.1-6.5-12.8-26.8,5.6-63c20.6-40.6,45.9-62.8,52.3-68c6,0.8,23.3,2.8,35.9,1.8
		c2.6,1.6,9.1,6.1,16,13.6c8.3,9,14.5,19.3,18.6,30.7c-2.4-5-5.5-10.2-9.2-15.3c-7.8-11-16.2-19.1-22.4-21.7
		c-3.5-1.4-7.1-1.3-10.4,0.4C471.4,391.3,468.1,404.5,467.4,407.7z M478.2,405.6c1.4-4.2,3.7-8.7,6-10c0.6-0.3,1.1-0.4,2.1,0
		c8.3,3.4,23.5,23.2,29.3,38.6C509.7,425.5,497.8,411.8,478.2,405.6z M477.7,498.7c1.1-18.6,9-32.3,23.5-40.8c-0.1,1-0.2,2-0.2,3
		c-0.1,4.8,1,9.8,3.6,13.7c-0.5-2.2-0.6-4.5-0.4-6.6c0.2-2.1,0.8-4.2,1.6-6.2c1.3-3.3,3.2-6.2,5.5-8.8l0.3-0.2
		c9-7.3,19.6-11,31.7-11c2.4,0,4.8,0.1,7.2,0.4c2.9,0.3,5.7,0.9,8.2,1.4c-10.7,6.5-18,17.8-21.2,30.3c3.5-7.3,8.6-13.9,15-18.7
		c5.7-4.4,12.7-6.9,19.9-7l0.2,0c17.7,1.1,30.9,8.6,39.2,22.2c3.7,6.2,5.6,12.3,6.6,16.3c-1.7,0.3-3.3,0.8-4.9,1.3
		c-10,3.3-18.2,11.3-21.8,21.1c4-5,9.1-9,14.9-11.3c4.5-1.7,9.3-2.5,14.1-2.3l2.9,0.3c13.6,1.3,26.1,9.9,32.7,22.4
		c5.7,10.9,5.8,22.7,0.3,32.3c-9.4,16.5-29.2,17.6-38.6,17.1c0.8-7.2-0.7-17.2-9.7-25c2.2-4.4,8.5-12.5,25.5-12.6
		c1.5,3.1,2.4,6.6,3.1,10.1c4.8-3.2,6.3-9.8,4.6-15.2c-3-9.4-14.7-13.5-23.2-9c2.2,1.8,4.7,3.3,7,4.9c-10.2,1.7-16.6,6-20.4,9.9
		c-5.7,5.8-7,11.8-7.2,12.5l-0.7,3.2l2.6,1.8c5.2,3.7,8.1,8.4,8.6,14c0.3,3.9-0.6,7-0.8,7.7c-8.1,16.4-18.8,26.2-31.8,29.3
		c-20.7,4.9-41.8-8.5-46.9-12c-1-3.1-3.4-10.9-4.1-18.1c9-12.1,21.2-20.8,21.4-20.9l2.8-2c0.3-0.2,0.5-0.3,0.8-0.5
		c8.4-5.1,18.2-7.8,28-8.4c1.7-0.2,3.4-0.1,5.2-0.2c-0.8-0.3-1.7-0.5-2.5-0.8c-11.6-3.6-25.5-2.9-36.8,2.2c-6.5-3.5-17-4.5-26.9-2.3
		c-4,0.9-7.7,2.2-11.1,4c3.5-7.1,9.1-12.8,17.2-15.8c13.4-5.2,28.5-2.4,41.5,3.2c-2.7-2.7-5.9-4.9-9.3-6.9c-1.6-0.9-3.2-1.7-4.8-2.5
		c2.2-1.3,4.2-3,6-4.9c2.5,3.8,6.3,6.1,10.5,6.1c6.5,0,12-5.8,13.4-13.5c0.2-1.3,0.4-2.6,0.4-4c0-4-1.1-7.8-2.9-10.7
		c-1.4-2.3-3.2-4.1-5.3-5.3c2.5-5.1,5-10.2,8.9-14.1c2.5-2.5,6.4-3.3,9.8-2c2.3,0.9,4,2.7,5.4,5.2c0.4-6.1-4.6-10.7-10.5-11.2
		c-5.4-0.6-10.3,2.6-13.8,6.5c-7.1,8.2-11.8,17.5-17.3,26.6c-2.6,4.2-5.1,8.3-8.7,11.6c-2.8,2.4-5.4,3-9,2.1c-2-0.5-3.9-1.1-5.2-2.8
		c-2.9-4.2-2.1-10.9-1.5-16c-5.7,6.2-8.3,15.9-3.4,22.4c-2.9,0.2-5.7,0.8-8.5,1.6c0,0-0.1-0.1-0.1-0.1c-2.7-2.1-4.6-5.1-5.7-8.3
		c-1.7-4.7-1.3-10.3,0.9-14.9c-6,6.5-7.3,16.4-3.9,24.6c0.3,0.7,0.6,1.4,0.9,2c-0.2,0.1-0.4,0.2-0.6,0.3c-5.4-2.9-9.1-8.1-11.7-13.9
		c-2.2-4.5-3.7-9.8-6.2-14.6c-2.5-4.9-5.9-5.2-8.4-0.1c0.9-0.6,1.8-1.2,2.7-1.5c0.4-0.2,0.9-0.2,1.1-0.1c0.8,0.6,0.9,2,1.2,3
		c0.8,5.3,1.4,10.6,2.8,15.8c-1,1.6-1.8,3.6-2.2,5.9c-0.2,1.3-0.4,2.7-0.4,4.1c0,1.5,0.1,2.9,0.4,4.3c1.1,5.6,4.3,9.6,8.1,9.8
		c-0.8,1.3-1.5,2.6-2.1,3.9c-2.7-3.7-6.6-6.5-11.3-7.5c-1-0.2-2-0.4-3-0.5C479.6,522.7,477,511.2,477.7,498.7z M614.2,578.3
		c-4.3,10.5-11.5,19.5-21.3,26.7c-9.1,6.6-17.1,9.2-17.2,9.3l-2.2,0.7l-0.9,2.2c-3.2,8-8.3,10.8-12,11.7c0.6-6.3,1.6-13.1,3.3-18.7
		c4.5,0.2,9.2-0.2,14-1.3C592.8,605.4,605,595.1,614.2,578.3z M522.4,602.3c1.9,10,4.7,19.8,8.1,29.4c0-3,0-7.1,0.1-10
		c0.2-7,0.7-13.9,1.8-20.8c5.7,3,13.2,6.2,21.7,8C550.4,622,550,639,550,646c-9.2,4.1-13.2,2.4-13.9,2l-5.9-7.9l-2.2,10.2
		c-0.9,0.5-3.5,0.7-6,0.5c-7.7-8.4-11.6-25.9-12.8-34.8c1-0.8,2.1-1.7,3.1-2.7C516.3,609.7,519.7,605.7,522.4,602.3
		C522.4,602.3,522.4,602.3,522.4,602.3z M517.1,562.9c-3.5-0.5-10.2-1.9-17-5.3c5.5-7.6,13.8-10.5,18.7-11.6
		c5.4-1.2,10.7-1.2,14.8-0.4C529,549.6,522.6,555.6,517.1,562.9z M544,658.1c-0.9,0.9-1.6,2-2.3,3c-2.6-1.7-6-2.7-10.1-1.7
		c1-0.4,1.9-0.9,2.6-1.6C536.7,658.5,539.9,658.8,544,658.1z M517.8,660.1l1.1,0.2c1.7,0.3,3.4,0.5,5.2,0.5c1.8,0,3.5-0.2,5.2-0.6
		c-4.9,2-7.9,6.1-9.7,9.4c-1.8-0.7-3.6-1.4-5.2-2.1C514.7,665.2,515.6,662.5,517.8,660.1z M527,676.7c0.5-1.4,2.7-6.6,6.7-7.8
		c2.1-0.6,3.7,0.8,4.5,1.9c-0.6,4.5-2.2,16.6-2.3,33.2c-0.1,18.6,1.6,46.4,10.2,74.5c-0.3,0.2-0.6,0.4-1,0.5c-1.2,0.4-4,0.6-9-1.9
		c-1.3-3.1-4.5-11.5-7.1-24.7C525.9,736.9,523,711.1,527,676.7z M543.3,789.1c1.3,0,2.6-0.2,3.8-0.5c0.4,2.3,0.9,4.8,1.8,7.4
		c-1.6,0.7-3.7,1.1-5.7-0.1c-1.9-1-3.3-4.1-4.4-7.4C540.3,789,541.9,789.1,543.3,789.1z M548,670.9c0.3-1.2,2.7-9,8.5-8.4
		c5.2,0.6,6.5,5.1,6.9,7.1c-1.7,6.9-10.8,47.3-0.1,107.8c-0.2,0.3-0.4,0.6-0.7,0.7c-1,0.4-3.4,0.2-7-1.7
		C539.8,725.4,547.5,674.4,548,670.9z M566.7,786.9c0.2-0.1,0.3-0.2,0.5-0.3c0.3,0.6,0.5,1.3,0.7,2c1.6,4.9,1.2,7.1,0.7,7.5
		c-2.9,2.2-7.8-0.2-9.8-1.4c-1.1-2.5-1.7-5.1-2-7.4C560.5,788.3,563.8,788.2,566.7,786.9z M558.4,652.8l1.5-0.8l-0.1-3.1
		c0-0.1,0-1.6,0-4c4.1-0.3,8.9,0.9,12.8,3.6c2.5,1.7,6.8,5.5,6.7,11.3c0,2.8-0.8,4.7-2.3,6c-1.2,1-2.7,1.4-4,1.6
		C571.9,662.1,568,654.3,558.4,652.8z M479.7,537.3l2-1c2.3-0.8,4.8-0.8,7.3-0.3c2,0.5,3.8,1.4,5.5,2.6c-1.7,4.5-2.6,9.2-2.6,14
		c-0.4,0.6-0.7,1.1-1.1,1.7c-13.6-0.7-22.7,5.3-28,10.8c-0.6,0.6-1.2,1.3-1.7,1.9C460.4,547.2,478.8,537.7,479.7,537.3z
		 M475.2,614.2c-9.4-5-14.4-11.8-14.7-20.1c-0.3-6.5,2.4-11.8,2.4-11.8l1-1.9l-0.1-0.2c0.9-1.8,2.8-5.1,5.8-8.3
		c5.9-6,13.3-8.6,22.2-7.7c9,5.4,18.3,7.5,23.4,8.3c1,6.9,3,13.7,4.1,17.2c-4.1,6.3-18.7,26.8-34.9,26.8
		C481.4,616.5,478.3,615.8,475.2,614.2z M486.9,644.6c-3.6-7.5-3.3-14.3-2.6-18.3h0.2c5.2,0,10.5-1.4,15.8-4.3
		c1.7,9.4,5.6,25.1,13.9,34.7c-2.5,2.7-3.8,5.9-4.5,8.6C498.5,659.8,490.8,652.9,486.9,644.6z M497.4,687.3
		c-0.1,0.7-0.2,1.4-0.3,2.2c-0.2-0.8-0.5-1.6-0.8-2.3C496.7,687.3,497,687.3,497.4,687.3z M500.1,812.3c6.2,3.8,13.3,6.4,21.2,7.6
		c3.9,3.7,16.8,9.9,35.5,9.9c4.9,0,9.4,2.9,15.2,1.3c13.1-3.8,28.4-16.1,41.6-29.2c4.2,1.6,12.2,4.1,21.4,4.7c1.5,0.1,3,0.2,4.5,0.2
		c15.4,0,28.1-5.8,37-17c0.2,6.2-11.6,5.2-8.6,21.8 M651,763.3c-1.5-1.5-2.6-2.7-3.3-3.6l-1.2-1.5c-0.1-0.1-6.2-7.9-5-16.5
		c0.2-1.4,0.6-2.8,1.2-4.2c1.2,6.2,4.1,12.3,8.9,18.1c1,1.2,2,2.3,3.1,3.4L651,763.3z M658.4,762.3c1.4,1.2,2.9,2.3,4.5,3.3
		l-3.8,4.5c-1.6-1.2-3.1-2.3-4.4-3.5L658.4,762.3z M642.8,769c4.5,4.7,12.6,11.9,24.1,16.8c-7.6,8.2-17.9,11.9-30.9,11
		c-5.7-0.4-10.9-1.6-14.8-2.8C630.6,784.1,638.5,774.5,642.8,769z M663.1,772.8l3.9-4.6c1.8,1,3.6,1.9,5.5,2.8l-4,4.7
		C666.6,774.8,664.8,773.8,663.1,772.8z M673.2,777.8l4.1-4.8c1.4,0.5,2.7,1,4.1,1.4l-3.8,4.9C676,778.8,674.6,778.3,673.2,777.8z
		 M684.7,802.5c-2.8-15.7-3-6-3.3-12.3c1.8,0.3,3.7,0.6,5.6,0.8l0.4,0l0.4,0c0.1,0,0.1,0,0.2,0 M682.8,780.5l3.7-4.7
		c2.6,0.6,5.1,1.1,7.7,1.4c-3.6,2.9-6,3.8-6.8,4C685.8,781,684.2,780.8,682.8,780.5z M776.3,695.5c-3.6,19.7-13.7,38.4-28.7,51.8
		c-12.4,11.1-28.2,18.9-44.9,18.8c-14.9-0.3-31-5.6-41.5-16.3c-6.1-6.2-9.4-14.5-8.6-23.2l0.2-1.7l0.3-1.7c0.1-1,0.6-2.5,0.8-3.5
		c0.3-1.3,0.8-2.6,1.2-3.8c1.7,1.7,3.5,3.3,5.4,4.9c13.7,11.2,32.4,17.2,49.9,13.8c-8.2-0.9-15.9-2.9-23.2-6.3
		c-7.7-3.7-14.7-8.7-20.9-14.7c9.3,4.5,19.5,7.2,29.8,7.2c7.2-0.1,14.4-1.6,20.8-4.9l2.3-1.3c1.1-0.7,2.2-1.5,3.3-2.2
		c1-0.8,2.1-1.7,3-2.5c1.9-1.7,3.6-3.6,5.2-5.6c-0.7,0.5-2.4,1.6-3.2,2.1c-3.2,1.9-6.5,3.6-10,4.8c-19.9,6.8-40.6-2.4-57.5-12.8
		c-0.5-0.8-1.3-2.2-1.3-2.2c-12.1-19.8-20.8-42.1-10.6-64.7c4.6-10.4,12.4-19.1,21.1-26.5c-10.2,5.9-19.4,13.9-25.6,24.1
		c-8.3,13.5-9.8,29.8-6.3,45.1c-6.3-4.4-11.1-11-13.9-18.2c-2.7-7-3.9-14.3-4-21.9c-3.1,20.4,2.5,40.8,21,52.1
		c0.4,0.2,0.7,0.4,1.1,0.6c1.8,4.3,4,8.3,6.6,12.1c0.8,1.1,1.5,2.2,2.4,3.2c-4,6.5-6.8,13.3-8.1,20.1c-6.3,5.1-9.9,11.2-10.9,18.1
		c-1.2,8.7,2.4,16.4,4.8,20.6c-8.8,11.3-43.3,53.8-67.4,60.6c-4.8,1.4-9.2,1.9-13.3,1.9c-6.6,0-12.1-1.5-16.5-3.4
		c7.1-1,14.1-3.2,20.2-6.9c-6.1,0.4-12.1,0.5-18.1,0c-5.2-0.4-10.3-1.3-15.4-2.5l-0.2-0.2l-1.8-0.2c-14.8-1.9-26.4-9.3-32.8-20.8
		c-7.2-13-7-29.9,0.5-46.2c12.2-26.4,15.6-54.5,16.6-67.7c2.6,1.2,5.4,2.3,8.4,3.4c-6.4,62,7.9,97.1,10.6,103.1
		c0.4,4,2.5,17.8,10.9,22.5c6.3,3.5,12.6,1.8,16.8-0.7c3,1.6,6.7,2.9,10.6,2.9c3,0,6-0.8,8.7-2.8c9.3-6.9,1.3-23.1-1.4-28
		c-10.2-57-2-96.3-0.3-103.6c2.3-0.2,5.1-0.9,7.3-2.8c2.7-2.2,4.1-5.5,4.1-9.7c0.1-5.9-3.1-11.5-8.8-15.4
		c-4.7-3.2-10.3-4.7-15.5-4.4c0-0.4,0-0.8,0-1.2c6.6-0.9,15.5-4.8,20.8-16c3.4-1.3,10.1-4.3,17.6-9.7c12.7-9.2,21.8-21.5,26.6-35.7
		c2.1-0.1,4.4-0.3,6.8-0.7c15.2-2.3,26.7-9.7,33.3-21.4c7.2-12.6,7.1-27.8-0.1-41.7c-1.4-2.8-3.1-5.4-5-7.8
		c12,1.7,29.5,6.2,38.9,18.1c5.3,6.7,7.5,15.2,6.4,25.4c-7.8-4.3-17.2-6.6-26.5-6.6c12.1,4.8,26,12.2,31.4,24.5
		c1.9,4.4,2.6,9.2,2.4,14.1c0,0.3,0,0.6,0,0.8c-8.4-3.9-17.3-6.7-26.6-7.8c-4.4-0.4-9-0.2-13.3,0.5c-35.7,6-67.6,44.6-84.4,74.6
		c21.7-25.9,63.3-71.6,100.1-64.2c25,5.3,46.6,22.2,62.9,41.5C766.6,645.5,780.3,670.7,776.3,695.5z"/>
	<path class="st5" d="M578.2,489.2c-1.2,8.3-8.6,16.6-8.6,16.6s11,3.4,13.9-2.6C588,494.2,578.2,489.2,578.2,489.2z"/>
	<path class="st5" d="M488.3,510.2c0.8,5.7,5.9,11.5,5.9,11.5s-7.6,2.4-9.6-1.8C481.5,513.6,488.3,510.2,488.3,510.2z"/>
	<path class="st9" d="M570.6,553.4l-14.8,13.7c-2,1.9-5.2,1.8-7.1-0.3c-2.6-2.7-1.2-7.4,2.4-8.3L570.6,553.4z"/>
	<path class="st9" d="M577,576.5l-19.4,5.3c-2.7,0.7-5.5-0.9-6.2-3.5c-1-3.6,2.4-7.1,6-6.2L577,576.5z"/>
	<path class="st9" d="M501.9,580.1c-0.8,3.9-5.8,5.3-8.5,2.5L480.6,570l17.4,4C500.8,574.7,502.5,577.4,501.9,580.1z"/>
	<path class="st9" d="M492.1,595.6l-17.1-5.2l17.3-4.6c2.7-0.7,5.5,0.9,6.2,3.6C499.6,593.2,495.8,596.8,492.1,595.6z"/>
	<line class="st10" x1="341.9" y1="756.6" x2="489.4" y2="848.5"/>
	<g>
		
			<image style="overflow:visible;opacity:0.6;" width="2426" height="2426" xlink:href="B031F652.png"  transform="matrix(0.24 0 0 0.24 279.9022 259.6222)">
		</image>
		<g>
			<circle class="st11" cx="571" cy="561.8" r="252.5"/>
		</g>
	</g>
	<g>
		
			<image style="overflow:visible;opacity:0.86;" width="3955" height="2292" xlink:href="B031F651.png"  transform="matrix(0.24 0 0 0.24 89.9422 54.5422)">
		</image>
		<g>
			<g>
				<path d="M258.3,495.1l-1.9,10.7l-58-3.1c23.9,6.3,39.6,10.1,47.4,11.4c4.5,0.8,8.4,1.3,11.6,1.4c3.2,0.1,6.4,0,9.5-0.4l-5.7,41
					c-2.8-2.5-8.3-5.5-16.4-9.1c-8.1-3.6-19.2-7.2-33.3-11c-5.5-1.4-9.4-2.6-11.9-3.4c-6.5-1.9-13.1-3.7-20-5.4
					c-6.9-1.8-13-3.1-18.2-4c-10.2-1.8-18-2.2-23.2-1l0.2-35.8c13.5,0.1,24.5,0.1,33,0c8.5-0.1,14.9-0.1,19.3-0.2l12.2-0.1
					c-2.6-1.2-5-2.3-7.2-3.5c-2.2-1.2-4.1-2.2-5.7-3c-7.2-3.9-13.9-7.3-20.3-10.4c-6.4-3.1-13-5.8-20-8.1l1.5-37
					c6.1,2.5,15.6,5.6,28.3,9.2c12.8,3.6,25,6.9,36.7,9.8c11.9,3.1,23.6,5.6,35.2,7.7c12.3,2.2,20.4,2.9,24.4,2.2l-2.6,35.9
					c-8.4-3.6-17.4-6.7-27.2-9.4c-9.7-2.7-21-5.4-33.9-8.3c-2.5-0.7-6.3-1.6-11.6-2.8L258.3,495.1z M227.7,532.4
					c-15.5-5-28.1-8.5-37.7-10.4c-15.4-3.2-26.2-5.4-32.6-6.5c-6.1-1.1-10.1-1.6-12-1.6c6.7,1.7,11.7,2.9,15,3.6
					c7.2,1.8,17,4.1,29.3,7c9.6,2.2,21.1,5.2,34.7,9.2c13.5,3.9,23.8,7.1,30.8,9.4C252.4,540.9,243.3,537.4,227.7,532.4z M235,453.9
					c-13.6-3.1-25-6.1-34.4-8.8c-9.8-2.9-24.4-7.1-43.9-12.4c3.2,1.7,15,5.8,35.3,12.1l7.7,2.4c5.9,1.9,13.4,3.9,22.7,6
					c9.2,2.1,17.8,3.9,25.8,5.3c9.9,1.8,16.1,2.5,18.6,2.3C259.1,459.3,248.6,457,235,453.9z M220.1,525.2c-11.4-3.7-21.3-6.3-30-8
					l-12.4-2.4c-7.8-1.4-13.2-2-16-1.8l27.9,6.4c6.6,1.5,16.3,4,29,7.4c12.7,3.4,21.8,5.9,27.2,7.6
					C240.1,532,231.5,528.9,220.1,525.2z M199.6,497.6c14,0.1,27.7-0.2,41.2-1c-8.9-0.9-21.9-1.4-39.1-1.4
					c-17.2-0.1-30.1,0.1-38.6,0.4C173.4,496.8,185.6,497.5,199.6,497.6z M226.8,457c-12.8-3.2-22.3-5.8-28.7-7.8l-27.4-8.1
					c2.2,1.4,5.5,3,9.8,4.6c4.3,1.6,10,3.5,16.8,5.6c10.5,3.5,24.5,6.8,42,10c5.7,1,10.7,1.8,15.1,2.3
					C248.8,462.4,239.6,460.2,226.8,457z"/>
				<path d="M289.8,443.8c2.9,0.6,6.3,0.1,10-1.3c3.7-1.4,6.1-3,7.3-4.9c1.5-2.7,1.9-5.1,1.2-7.1c-0.7-2-2.1-3.7-4.1-5.2
					c-2.1-1.5-5.1-3.3-9.1-5.6c-0.2,5.3-1.6,10.2-4.2,14.5c-4.8,7.6-10.8,11.5-18.2,11.8c-7.4,0.3-15.9-2-25.5-6.7
					c-3.6-1.8-7.1-3.7-10.5-5.7l-24-14.3c-1.3-0.8-3.7-2-7.2-3.7c-7.5-3.7-12.6-5.8-15.5-6.5l10.9-32.3c3.2,2.7,7,5.7,11.5,9
					c4.5,3.3,8.1,5.7,10.8,7.3l26,15.5c5.6,3.3,9.3,5.3,11,6.2c4.5,2.2,8.1,3.4,10.9,3.6c2.8,0.2,4.9-0.7,6.3-2.7
					c1-1.4,0.6-3.3-1.2-5.4c-1.8-2.2-4.4-4.2-7.9-6.2l-5.8-3.4l-20.9-12c-5.8-3.4-10.7-6-14.8-8c-7.4-3.6-13.4-5.7-18.2-6.2
					l9.8-32.4l28.7,17.4l47.3,27.3c17.7,10.3,29.3,20.6,34.7,31c5.4,10.4,5.6,20.7,0.6,31c-2.1,4.3-5.3,7.8-9.4,10.4
					c-4.1,2.6-8.2,4.4-12.2,5.3c-4,0.9-6.8,1.2-8.2,0.9L289.8,443.8z M228.9,422.5c8.5,5.2,15.1,9,19.7,11.3
					c8.4,4.1,15.6,6.2,21.6,6.1c6-0.1,10.6-3.3,13.7-9.6c0.4-0.8,0.9-2.1,1.5-3.9c-3,7-7.3,10.7-13.1,11c-5.8,0.3-13.2-1.7-22.1-6.1
					c-4.3-2.1-11.3-6-21-11.5c-12.3-7.1-21.1-11.9-26.3-14.5c-2.2-1.1-4.2-2-6.2-2.7C203.5,406.8,214.2,413.4,228.9,422.5z
					 M212.9,404.8c14.8,9.7,26,16.5,33.6,20.2c8.4,4.1,15.1,6.5,20.2,7.1c5.1,0.6,8.8-1.3,11-5.6c-1.7,2.5-4.1,3.8-7.2,3.9
					c-3.1,0.1-6.5-0.6-10.2-2c-3.7-1.4-8.7-3.7-14.9-6.8c-2.7-1.3-9.9-5.2-21.5-11.6c-8.3-4.6-14-7.7-17.1-9.2L212.9,404.8z
					 M265.6,378.6l23.9,13.9c13.3,7.8,23.1,15.6,29.4,23.5c6.4,7.8,8.5,16,6.4,24.5c3.4-8.7,1.7-17.4-5-26
					c-6.8-8.6-16.4-16.6-28.9-23.9c-30.5-17.5-50.5-28.5-60-33.2c-2.8-1.4-5.3-2.5-7.5-3.3C228.3,356.8,242.2,365,265.6,378.6z
					 M251.6,378l34.3,20.4c10.9,6.5,19,12.1,24.2,16.7c5.2,4.6,8.2,9.2,9,13.9c0-5-2.5-10.1-7.5-15.3c-5-5.2-13-11-23.9-17.3
					c-22.4-13.1-39.6-22.6-51.6-28.5c-3.3-1.6-5.4-2.6-6.3-2.9C229.3,364.7,236.6,369,251.6,378z"/>
				<path d="M322.7,353c-11.4-2.4-23.3-9.8-35.7-22.2c-1.5-1.5-3.7-3.8-6.6-7.1c-7.8-8.7-13.9-18.1-18.3-28.2
					c-4.4-10.1-6.4-19.9-5.8-29.4c0.6-9.5,4.2-17.5,10.9-24.2c6.4-6.5,13.4-9.7,21-9.8c7.5-0.1,14.4,1.7,20.5,5.2l-1.7,26.2
					c-2.9-2.1-6-3.3-9.2-3.4c-3.2-0.2-5.7,0.4-7.5,1.7c-0.3,0.2-0.8,0.5-1.3,1.1c-3.5,3.5-4,8.8-1.4,15.8c2.5,7,7.2,14.8,14,23.4
					c2.5,3.2,5.3,6.3,8.3,9.3c5,5,9.6,8.4,13.7,10.4c4.2,2,7.6,2.2,10.3,0.8c0.9-0.4,1.8-1,2.6-1.8c1.5-1.5,2.7-3.3,3.7-5.6
					c1-2.3,1.5-4.8,1.7-7.6l19.3,5.8c1.1,4.8,1,10-0.2,15.5c-1.2,5.5-4.3,10.8-9.2,15.7C343.8,352.6,334.1,355.4,322.7,353z
					 M262.3,270.2c0.2,8.9,2.6,17.8,7,26.9c4.5,9.1,10,17.3,16.6,24.5c1,1.1,2.5,2.8,4.7,4.9c8.7,8.7,17.6,15,26.6,18.7
					c9,3.8,17,3.9,24.1,0.3c-6.9,2.2-14.8,1.2-23.7-3.1c-8.9-4.3-17.6-10.7-26-19.1l-3.9-4.2c-6.5-6.9-11.9-14.7-16.3-23.4
					c-4.4-8.7-6.8-17.3-7.3-25.9c-0.5-8.6,1.8-16.1,6.9-22.5C264.9,253.8,262,261.4,262.3,270.2z M272.3,288.3
					c3.4,9.1,9.5,18.5,18.5,28.5c1.2,1.4,3,3.3,5.4,5.6c6.6,6.6,12.5,11,17.6,13.2c5.1,2.2,10,2.7,14.6,1.6
					c-4.3,0.3-8.8-0.9-13.5-3.5c-4.7-2.6-10.2-7-16.5-13.3c-2.6-2.6-4.6-4.6-5.9-6.1c-8.7-9.4-14.9-18.3-18.3-26.7
					c-3.5-8.4-4.3-15.5-2.5-21.2C268.7,271.9,268.9,279.2,272.3,288.3z"/>
				<path d="M327.3,251.8c-1.2-9.1-0.3-17.2,2.9-24.3c3.2-7.1,8.4-12.7,15.5-16.8c5.4-3.1,11.4-4.5,18.1-4
					c6.7,0.5,13.4,2.9,20.1,7.5c6.8,4.5,13,11,18.5,19.5c1.5,2.2,2.5,3.9,3.2,5.2c5.6,9.7,8.9,19.1,10.1,28.1c1.2,9,0.3,17-2.6,24
					c-2.9,7-7.5,12.6-13.9,16.8c-6.1,4-12.4,5.9-19.1,5.8c-6.7-0.2-13.3-2.5-20-7c-6.6-4.5-12.9-11.2-18.6-19.9
					c-1.7-2.5-2.9-4.5-3.7-5.9C332.1,270.5,328.6,260.9,327.3,251.8z M365,300.8c-6.4-4.4-12.2-10.5-17.4-18.3
					c-1.6-2.5-3.1-5.1-4.4-7.7c-5.4-10.1-8.4-19.9-9-29.4c-0.6-9.5,2.7-17.1,9.8-22.9c-5.5,3.2-9,7.8-10.4,13.9
					c-1.5,6.1-1.4,12.7,0.2,19.8c1.6,7.1,4,13.9,7.4,20.4c1.3,2.6,2.7,5.1,4.3,7.5c5.4,8.2,11.6,14.4,18.6,18.7
					c7,4.3,13.6,5.5,19.7,3.5C377.7,307.1,371.5,305.2,365,300.8z M352.4,280c-1.6-2.5-3.2-5.2-4.7-8.1c-4.4-8-7-15.5-7.6-22.4
					c-0.6-7,0.1-12.3,2.3-15.9c-3.2,3.3-4.5,8.7-4,16c0.5,7.3,3,15.3,7.6,23.9c1.3,2.6,2.7,5.1,4.2,7.4c3.9,6,8.2,10.6,12.9,14
					c4.6,3.4,9.2,5.2,13.6,5.4C367.7,297.7,359.6,290.9,352.4,280z M376.1,283.5c4.5,4.1,8,5.4,10.5,3.7c1.7-1.1,2.7-3.6,2.8-7.3
					c0.1-3.7-0.5-8-1.9-12.8c-1.4-4.8-3.1-9.1-5.4-12.8c-0.6-1.1-1.7-2.8-3.2-5.2c-3.6-5.4-7.2-9.8-10.8-13.1
					c-3.6-3.3-6.7-4.4-9.2-3.1c-4.8,2.4-6.3,7.2-4.8,14.3c1.6,7.1,4.7,14.2,9.3,21.2C367.4,274.4,371.6,279.4,376.1,283.5z
					 M377.4,220.1c6.4,4.5,12.3,10.7,17.5,18.6c1,1.5,2.4,3.9,4.3,7.1c5.3,10.2,8.3,20,8.9,29.5c0.6,9.5-2.7,17.1-9.8,22.9
					c5.5-3.2,9-7.9,10.5-14c1.5-6.1,1.5-12.7-0.1-19.8c-1.6-7.1-4-13.9-7.4-20.4c-0.8-1.7-2.2-4-4.2-7c-5.5-8.3-11.7-14.6-18.8-19
					c-7-4.4-13.7-5.6-19.8-3.6C364.7,213.7,371,215.6,377.4,220.1z M389.3,240c2.4,3.7,4.2,6.6,5.4,8.9c4.3,8.1,6.8,15.6,7.5,22.5
					c0.7,7-0.1,12.3-2.3,15.9c3.2-3.3,4.5-8.7,4-16c-0.5-7.3-3-15.4-7.4-24c-1-1.9-2.5-4.4-4.6-7.6c-3.6-5.4-7.1-9.6-10.6-12.5
					c-3.5-2.9-6.6-4.5-9.2-4.7C377.5,225,383.3,230.8,389.3,240z"/>
				<path d="M424.9,285.2c0.5-3.4-0.5-12.1-3.1-26.3l-6.9-38.3c-1.9-10.8-3.5-18.5-4.7-22.9c-1.4-5.1-3.1-9.2-5-12.3l29.1-13.7
					l1.2,6.3c4.9-5.4,10.5-9,16.8-10.7c3.7-1,7.3-1.1,11-0.2c3.6,0.9,7.1,3.1,10.4,6.7c2.8-5,6.3-9.1,10.6-12.5
					c4.2-3.4,9.1-5.6,14.5-6.6c5.6-1.1,11,0.6,16.3,5c5.3,4.4,9.5,12.3,12.6,23.7c0.8,3,1.4,5.3,1.7,6.9l7,33.8
					c0.3,1.5,0.9,4.1,2,7.9c2.2,7.9,4,13.2,5.5,15.9l-31.4,13.3c-0.1-4.2-0.4-9-0.9-14.6c-0.5-5.5-1.1-9.8-1.7-12.9l-5.6-29.7
					c-0.8-3.8-1.4-6.4-1.8-7.8c-1.5-5.5-3.2-9.2-5.1-11.3c-1.9-2.1-4-2.7-6.5-2.1c-2.2,0.6-3.9,2.5-5,5.6c-1.1,3.1-1.2,7.1-0.4,12
					l0.3,1.7l7,33.8c0.3,1.5,0.9,4.1,2,7.9c2.2,7.9,4,13.2,5.5,15.9l-31.3,13.3c-0.1-4.2-0.4-9-0.9-14.6c-0.5-5.5-1.1-9.8-1.7-12.9
					l-5.6-29.7c-0.8-3.8-1.4-6.4-1.8-7.8c-1.5-5.4-3.2-9.2-5.1-11.3c-1.9-2.1-4-2.7-6.5-2.1c-2.3,0.6-4,2.5-4.9,5.7
					c-0.9,3.1-1.1,7.4-0.5,12.7l6.5,36.1c1,5.5,2.2,10.5,3.5,15.2c1.3,4.6,2.3,7.6,3.2,9.2L424.9,285.2z M428.9,250
					c-1.3-12.2-2.9-21.8-4.7-28.9c-0.7-2.6-1.2-4.7-1.6-6.6l-3.5-13.2c-2-7.2-3.5-11.6-4.5-13.1c0.9,3.7,2.1,9.2,3.6,16.4l3.6,17.1
					c1.6,7.2,3.2,15.9,4.8,26.2c1.6,10.2,2.6,18.4,3.2,24.4C430.5,269.7,430.2,262.2,428.9,250z M432.1,239.2c-0.8-7.3-2-14-3.6-20
					c-1-3.6-2.1-7.4-3.4-11.6c-1.3-4.2-2.4-7.2-3.5-8.9l4.7,21.1c1.2,5.1,2.6,12.5,4.3,22.2c1.7,9.8,2.8,16.7,3.4,20.7
					C433.5,254.4,432.9,246.6,432.1,239.2z M484.7,216.9c-1.6-9.4-3.1-16.6-4.5-21.6c-2.5-9.1-5.8-16-9.9-20.6
					c-4.1-4.6-9.6-6-16.5-4.1c-0.8,0.2-2,0.7-3.7,1.4c7.2-2.5,12.9-1.6,16.9,2.5c4.1,4.1,7.4,11,10.1,20.6
					c1.3,4.7,3.1,12.4,5.3,23.3c2.9,13.9,5.1,23.7,6.6,29.2c0.6,2.3,1.3,4.5,2.1,6.4C489.9,246.3,487.7,233.9,484.7,216.9z
					 M482.1,240.6c-2.5-17.5-4.9-30.4-7.2-38.6c-2.5-9-5.2-15.6-8.1-19.8c-3-4.2-6.8-5.7-11.5-4.6c3-0.3,5.6,0.6,7.7,2.8
					c2.1,2.2,3.9,5.2,5.2,9c1.4,3.7,3,9,4.8,15.6c0.8,2.9,2.7,10.8,5.6,23.8c2.1,9.2,3.6,15.5,4.5,18.9L482.1,240.6z M529,204.7
					c-1.2-6.5-2.5-12.4-4-17.8c-2.8-10-6.3-17.7-10.7-23.1c-4.4-5.4-9.9-7.2-16.5-5.3c-0.8,0.2-1.9,0.6-3.4,1.3
					c7.1-2.4,12.8-1.2,17,3.8c4.2,5,7.9,12.9,10.9,23.8c1,3.7,2.5,9.9,4.4,18.7c2.9,13.9,5.1,23.7,6.6,29.2c0.6,2.3,1.3,4.5,2.1,6.4
					C534.1,234.1,532,221.7,529,204.7z M526.3,228.4c-2.5-17.5-4.9-30.4-7.2-38.6c-2.5-9-5.2-15.6-8.1-19.8c-3-4.2-6.8-5.7-11.5-4.6
					c3-0.3,5.6,0.6,7.7,2.8c2.1,2.2,3.9,5.2,5.2,9c1.4,3.7,3,9,4.8,15.6c0.8,2.9,2.7,10.8,5.6,23.8c2.1,9.2,3.6,15.5,4.5,18.9
					L526.3,228.4z"/>
				<path d="M547,250.2c1.3-3.1,2.5-11.9,3.6-26.2l2.9-38.8c0.5-6.1,0.7-11.7,0.6-16.8c-0.1-8.1-1.1-14.4-2.9-19l33.3-6l-2.5,33.4
					l-3.4,44.5c-0.4,5.5-0.5,10.7-0.5,15.6c0.1,4.7,0.3,8,0.8,9.7L547,250.2z M557.8,220.2c1.8-12.1,2.7-21.8,2.7-29.1
					c0-2.7,0-4.9,0.1-6.8l0-13.7c-0.1-7.5-0.5-12.1-1.1-13.8c-0.1,3.8-0.3,9.4-0.6,16.8l-0.8,17.5c-0.2,7.4-0.9,16.2-2,26.5
					c-1.1,10.3-2.1,18.4-3,24.4C554.4,239.6,556,232.3,557.8,220.2z M559.2,129.9c-2.6-2.7-3.9-6-3.9-10.1
					c-0.1-4.6,1.5-8.6,4.7-11.9c3.2-3.3,7-5,11.4-5.1c3.8-0.1,7,1.3,9.7,3.9c2.6,2.7,4,6,4,9.9c0.1,4.6-1.5,8.6-4.8,12
					c-3.2,3.4-7,5.1-11.3,5.2C565,133.9,561.7,132.5,559.2,129.9z M562.5,124.8c-0.7-1.7-1-3.4-1-5.3c0-2.9,0.7-5.5,2.3-7.7
					c1.6-2.3,4.1-3.9,7.5-4.9c-3.6-0.3-6.5,0.8-8.7,3.4c-2.2,2.6-3.3,5.6-3.3,9c0,2.1,0.5,4,1.5,5.7c0.9,1.7,2.3,3,4.2,3.8
					C564,127.8,563.1,126.5,562.5,124.8z M563.6,210.6c1.1-7.3,1.6-14,1.5-20.3c-0.1-3.7-0.2-7.7-0.3-12.1c-0.2-4.4-0.6-7.6-1.2-9.5
					l-0.7,21.6c-0.2,5.2-0.6,12.7-1.4,22.6c-0.8,9.9-1.4,16.8-2,20.9C561.2,225.6,562.5,217.8,563.6,210.6z M565.2,119
					c0-3.5,1.4-6,4.4-7.7c-2,0.1-3.5,0.9-4.6,2.4c-1.1,1.5-1.7,3.1-1.7,5c0,2.8,1.2,4.7,3.5,5.8C565.8,122.9,565.3,121,565.2,119z"
					/>
				<path d="M597.2,249.9c-4.6-4.3-7.9-10.1-9.9-17.3c-2-7.2-2.2-15.4-0.7-24.7c0.5-3,1.1-6,2-9c2.8-10.8,6.9-19.8,12.4-27
					c5.5-7.2,11.9-12.3,19.2-15.2c7.3-2.9,14.9-3.4,23-1.7c6.6,1.4,11.5,4.5,14.9,9.5c3.4,4.9,5.5,10.1,6.4,15.6l-19.5,11.4
					c-0.1-3.2-0.9-5.9-2.5-8.3c-1.6-2.4-3.3-3.7-5.2-4c-4.7-0.7-8.7,1.2-12,5.9c-3.3,4.7-6,10.7-8,18.1c-0.8,3-1.5,5.9-1.9,8.6
					c-0.9,5.9-1,10.7,0,14.5c0.9,3.7,2.7,6.1,5.3,7.2c1.3,0.4,2.3,0.7,2.9,0.8c4.1,0.7,8.2-0.7,12.2-4.2l5.7,19
					c-2.4,2.7-6.3,5-11.7,6.9c-5.4,1.9-10.7,2.5-16,1.7C607.4,256.9,601.9,254.2,597.2,249.9z M596.3,232.6
					c-1.8-7.6-1.9-16-0.5-25.2c0.5-3,1.1-5.8,1.9-8.6c2.8-11.1,7.2-20.4,13.2-27.8c6-7.4,13.5-10.8,22.7-10.3
					c-6.2-1.3-11.9-0.3-17.1,3.2c-5.2,3.5-9.6,8.4-13.2,14.7c-3.6,6.3-6.4,13-8.4,20.1c-0.8,2.8-1.4,5.6-1.9,8.5
					c-1.5,9.7-1.2,18.5,1.1,26.4c2.2,7.9,6.3,13.2,12.2,15.9C601.4,245.8,598.1,240.2,596.3,232.6z M600.8,210.5
					c0.5-3.2,1.3-6.8,2.3-10.9c2.1-8.9,5.3-16.1,9.5-21.7c4.2-5.6,8.4-9,12.4-10.2c-4.6,0.3-9.2,3.4-13.8,9.1
					c-4.6,5.8-8.1,13.3-10.5,22.8c-0.8,3.1-1.5,6.2-2,9.3c-1,6.2-1.2,11.5-0.5,16c0.6,4.5,1.9,7.6,3.7,9.4
					C599.5,228.5,599.2,220.6,600.8,210.5z"/>
				<path d="M669.4,269.3c2.5-2.5,5.3-5.7,8.4-9.7c3.1-4,5.6-7.4,7.5-10.2l34.2-52.6c2.3-3.5,4.2-6.7,5.8-9.7
					c0.5-0.7,1.1-1.7,1.9-3.1c-4.1-1.7-6.9-2.7-8.5-3.2l15.8-22.6c4.9,1.3,12.8,4.3,23.5,8.8c10.8,4.6,18,8.1,21.6,10.6
					c8.8,5.9,14.3,12.5,16.6,20c2.3,7.5,1.6,14.7-2.1,21.5c-3.5,6.6-9.2,11.8-17.1,15.7c-7.9,3.8-16.8,5.4-26.9,4.6
					c6,4.4,9.8,9.3,11.3,14.7c1.5,5.4,0.9,10.7-1.9,15.8c-2.7,5.1-7.1,9.3-13.2,12.5c-6.1,3.2-13.2,5-21.6,5.1
					c-8.3,0.2-17.1-1.7-26.4-5.8L669.4,269.3z M699.6,243.4c9.5-13.2,16.7-24.1,21.6-32.6c7.8-13.6,13.2-23.3,16.3-29
					c2.9-5.5,4.7-9.1,5.3-10.9c-3.7,5.9-6.3,10.3-8,13.2c-3.9,6.3-9.1,14.9-15.7,25.7c-5,8.4-11.5,18.4-19.3,29.9
					c-7.9,11.5-14,20.4-18.5,26.6C683.8,264.3,690,256.7,699.6,243.4z M708.7,238.4c7-9.7,12.6-18.3,16.9-26l6.1-11.1
					c3.8-7,6-11.9,6.7-14.7l-14.7,24.5c-3.5,5.8-8.8,14.3-16,25.3c-7.1,11-12.3,18.9-15.6,23.5C696.2,255.3,701.7,248.1,708.7,238.4
					z M736.1,282.5c7.1-1.9,12.8-5.7,17-11.4c1-1.3,1.6-2.3,2-3c2.7-5,3-10,1.1-15.2c-1.9-5.1-6.3-9.5-13.3-13.1
					c5.8,3.6,9.4,7.9,11,12.8c1.5,4.9,1.1,9.8-1.4,14.4c-0.4,0.8-1.1,1.9-2.1,3.2c-3.9,5.1-9,8.6-15.3,10.5s-14.5,2.3-24.5,1.2
					C720.5,284.2,729,284.4,736.1,282.5z M711.5,261.4c5.5,2.3,10.3,3,14.6,2.3c4.3-0.7,7.2-2.4,8.7-5.2c1.3-2.4,1-5.1-0.8-8.1
					c-1.8-2.9-5.3-5.6-10.4-8.1L711.5,261.4z M735,277.6c5.3-1.7,9.3-4.5,12.1-8.5c2.3-3.5,3.1-7.2,2.6-11.1
					c-0.5-3.9-2.6-7.3-6.3-10.3c2.4,3,3.9,6.2,4.2,9.5c0.4,3.3-0.2,6.5-1.8,9.4c-2.2,4.2-5.6,7-10.1,8.6c-4.5,1.6-10.4,2.9-17.6,3.9
					C724.1,279.8,729.7,279.3,735,277.6z M738.5,219.5c7.9,0.6,14.5,0.2,19.8-1.3c5.3-1.4,8.7-3.5,10.1-6.3c1.4-2.5,0.9-5.3-1.4-8.3
					c-2.3-3-6.5-5.9-12.7-8.6l-4,5.9L738.5,219.5z M773.8,231.3c6.7-3.5,11.6-8.4,15-14.6c3.2-6,3.9-12.1,2-18.3
					c-1.9-6.2-6.7-11.2-14.3-15.2c6.6,4.1,10.7,9,12.2,15c1.5,5.9,0.8,11.7-2.3,17.4c-3,5.7-7.6,10.3-13.6,13.8
					c-6,3.5-13,5.3-20.9,5.2C759.9,236,767.2,234.9,773.8,231.3z M772.2,225.2c4.8-2.5,8.3-5.9,10.6-10c2.1-3.9,2.7-7.9,2-12.1
					c-0.7-4.2-3-8-7-11.4c3.1,3.5,4.8,7.2,5.2,11.2c0.4,4-0.4,7.8-2.3,11.3c-2.1,3.9-5.2,7.1-9.5,9.7c-4.3,2.6-8.7,4.3-13.4,5.2
					C762.6,229,767.4,227.7,772.2,225.2z"/>
				<path d="M801.5,248.9c8.5-3.4,16.6-4.5,24.3-3.1c7.7,1.4,14.4,5,20.1,10.9c4.4,4.5,7.1,10,8.3,16.5c1.2,6.6,0.4,13.7-2.3,21.4
					c-2.7,7.7-7.5,15.3-14.3,22.8c-1.8,2-3.2,3.4-4.2,4.4c-8.1,7.8-16.3,13.4-24.7,16.7c-8.4,3.3-16.4,4.4-23.9,3.3
					c-7.5-1.1-14.1-4.2-19.7-9.3c-5.4-4.9-8.8-10.6-10.3-17.1c-1.5-6.5-0.8-13.5,1.9-21.1c2.8-7.6,7.7-15.2,14.8-23
					c2-2.2,3.6-3.9,4.8-5C784.5,258.1,792.9,252.3,801.5,248.9z M763.2,297.5c2.7-7.3,7.2-14.4,13.5-21.3c2-2.2,4.1-4.3,6.3-6.2
					c8.5-7.7,17.2-13.1,26.3-16c9.1-2.9,17.3-1.6,24.6,3.9c-4.5-4.5-9.8-6.8-16-6.7c-6.2,0.1-12.6,1.8-19.1,5
					c-6.5,3.3-12.5,7.3-18,12.1c-2.2,1.9-4.3,3.9-6.2,6c-6.6,7.2-11.2,14.8-13.6,22.6c-2.5,7.8-2,14.5,1.5,20
					C760.2,311.3,760.5,304.8,763.2,297.5z M780.3,280.2c2-2.2,4.3-4.4,6.7-6.5c6.7-6.3,13.3-10.6,19.9-12.9
					c6.6-2.3,11.9-2.9,16-1.7c-4-2.3-9.5-2.3-16.5,0c-7,2.3-14.1,6.7-21.3,13.2c-2.2,1.9-4.2,3.9-6.1,5.9
					c-4.8,5.3-8.3,10.6-10.4,15.9c-2.1,5.3-2.8,10.2-1.9,14.5C766.9,299.3,771.5,289.8,780.3,280.2z M844.5,289.7
					c-2.8,7.4-7.4,14.5-13.8,21.5c-1.2,1.4-3.2,3.3-5.9,5.9c-8.6,7.7-17.4,12.9-26.4,15.8c-9.1,2.9-17.3,1.6-24.6-3.8
					c4.5,4.5,9.8,6.8,16.1,6.7c6.3,0,12.7-1.7,19.2-5c6.5-3.3,12.5-7.3,18-12.1c1.4-1.2,3.3-3.1,5.7-5.8
					c6.7-7.3,11.3-14.9,13.9-22.9c2.5-7.9,2.1-14.6-1.3-20.1C847.6,275.8,847.3,282.3,844.5,289.7z M782.6,304
					c-2.9,5.4-3.2,9.1-1,11.1c1.5,1.4,4.1,1.7,7.8,0.9c3.6-0.8,7.6-2.5,11.9-5c4.3-2.5,8-5.3,11.1-8.3c0.9-0.9,2.3-2.3,4.2-4.4
					c4.4-4.8,7.7-9.3,10-13.7c2.3-4.4,2.6-7.6,0.8-9.7c-3.5-4-8.5-4.4-15.1-1.1c-6.5,3.3-12.6,8-18.3,14.2
					C789.4,293.3,785.5,298.6,782.6,304z M828.1,306.1c-3,3.2-5.4,5.7-7.3,7.4c-6.7,6.2-13.4,10.4-20,12.8c-6.6,2.3-11.9,2.9-16,1.7
					c4,2.3,9.5,2.3,16.5,0c7-2.3,14.2-6.6,21.5-13.1c1.6-1.4,3.6-3.5,6.2-6.3c4.4-4.8,7.5-9.2,9.5-13.4c2-4.1,2.7-7.5,2.3-10.1
					C839.8,291,835.5,298,828.1,306.1z"/>
				<path d="M871.5,318.7c9.1-1.1,17.2-0.1,24.3,3.2c7.1,3.3,12.6,8.5,16.6,15.6c3.1,5.4,4.4,11.5,3.8,18.1
					c-0.5,6.6-3.1,13.3-7.7,20.1c-4.6,6.7-11.2,12.8-19.7,18.3c-2.2,1.4-4,2.5-5.2,3.1c-9.8,5.5-19.2,8.7-28.2,9.8
					c-9,1.1-17,0.1-24-2.9c-7-3-12.6-7.7-16.7-14.1c-3.9-6.1-5.8-12.5-5.5-19.2c0.2-6.7,2.7-13.3,7.3-19.9
					c4.6-6.6,11.3-12.7,20.1-18.4c2.5-1.6,4.5-2.8,5.9-3.6C852.8,323.3,862.4,319.9,871.5,318.7z M822.1,355.9
					c4.5-6.4,10.6-12.1,18.5-17.2c2.5-1.6,5.1-3.1,7.7-4.3c10.2-5.3,20-8.2,29.5-8.7c9.5-0.5,17.1,2.9,22.8,10
					c-3.1-5.5-7.7-9-13.8-10.6c-6.1-1.5-12.7-1.5-19.8,0c-7.1,1.5-14,3.9-20.5,7.1c-2.6,1.3-5.1,2.7-7.6,4.2
					c-8.2,5.3-14.6,11.4-18.9,18.4c-4.4,6.9-5.6,13.5-3.7,19.7C815.7,368.5,817.6,362.3,822.1,355.9z M843,343.5
					c2.5-1.6,5.2-3.2,8.1-4.6c8-4.4,15.5-6.8,22.5-7.4c7-0.6,12.3,0.2,15.9,2.4c-3.3-3.2-8.6-4.6-16-4.2c-7.4,0.4-15.4,2.8-24,7.3
					c-2.6,1.3-5.1,2.7-7.4,4.2c-6,3.9-10.7,8.1-14.2,12.7c-3.4,4.6-5.3,9.1-5.6,13.6C825.2,358.6,832.1,350.6,843,343.5z
					 M902.7,369.2c-4.6,6.4-10.9,12.1-18.8,17.3c-1.6,1-3.9,2.4-7.2,4.2c-10.2,5.2-20.1,8.1-29.6,8.5c-9.5,0.5-17.1-2.9-22.8-10
					c3.1,5.5,7.8,9.1,13.8,10.6c6.1,1.6,12.7,1.6,19.8,0.1c7.1-1.5,14-3.9,20.5-7.1c1.7-0.8,4-2.2,7-4.1
					c8.3-5.4,14.8-11.6,19.2-18.6c4.5-7,5.8-13.6,3.8-19.8C909.2,356.5,907.2,362.8,902.7,369.2z M839.2,367.2
					c-4.2,4.5-5.5,8-3.8,10.5c1.1,1.7,3.5,2.7,7.3,2.8c3.7,0.1,8-0.4,12.8-1.7c4.8-1.3,9.1-3,12.9-5.2c1.1-0.6,2.9-1.6,5.2-3.1
					c5.4-3.5,9.8-7,13.2-10.7c3.4-3.6,4.5-6.7,3.2-9.2c-2.4-4.8-7.1-6.4-14.3-4.9c-7.1,1.5-14.2,4.5-21.3,9.1
					C848.4,358.6,843.4,362.7,839.2,367.2z M882.7,380.8c-3.7,2.4-6.7,4.2-8.9,5.3c-8.1,4.3-15.6,6.7-22.6,7.2
					c-7,0.6-12.3-0.2-15.9-2.4c3.3,3.2,8.6,4.6,16,4.2c7.4-0.4,15.4-2.8,24.1-7.2c1.9-0.9,4.4-2.4,7.6-4.5c5.4-3.5,9.6-7,12.6-10.5
					c3-3.5,4.6-6.5,4.8-9.2C897.8,369.2,891.9,374.9,882.7,380.8z"/>
				<path d="M837.9,420.2c3.4,0.3,12.1-1.1,26.1-4.4l77.8-18.2c6-1.4,11.4-2.9,16.2-4.4c7.7-2.5,13.4-5.3,17.3-8.4l15.7,30
					l-32.6,7.7l-47.2,11c4.9,4.2,11.8,6.8,20.6,7.9c8.8,1,17,0.5,24.7-1.7l1.6,29.7c-11.9,1.5-22.6,1.3-32-0.5
					c-9.4-1.8-18.4-5.5-27.1-11c-6.2,7.8-11.2,14.1-14.9,19.1c-3.8,5-7.2,10.2-10.3,15.4l-26.4-18.8c1.6-2,3.8-4.2,6.5-6.7
					c3.1-3,6.3-6.1,9.4-9.4c3.1-3.3,7.7-8.7,13.9-16.2l-2.2,0.5c-5.6,1.4-10.9,2.9-15.8,4.5c-4.2,1.4-6.9,2.5-8.2,3.4L837.9,420.2z
					 M880.5,420.6c17.7-3.2,31.7-6.3,42.1-9.2c19.1-5.3,32.4-9.2,39.7-11.7c4.5-1.5,7.2-2.5,8.1-3c-10.3,2.7-18.3,4.7-23.9,6.1
					l-24.9,6.4c-10.5,2.9-23.2,5.8-38.1,8.9c-14.9,3.1-26.7,5.4-35.4,7C852,425.3,862.8,423.9,880.5,420.6z M924.7,415.6l5-1.5
					c6-1.7,10.7-3.2,14.1-4.3c5.1-1.7,8.8-3.2,11-4.3l-30.6,7.9c-7.6,1.9-18.5,4.5-32.6,7.8c-14.1,3.3-24.1,5.5-30.1,6.6
					C890,423.7,911,419.6,924.7,415.6z M889.4,449.5c-9.2,9.8-16.6,19-22.3,27.4C874.8,469.8,882.2,460.6,889.4,449.5z M881.1,471.5
					c3.8-5.4,8.7-12.8,14.6-22c-6.3,7-11,12.6-14,16.8c-3,4.3-6.6,10-10.8,17.2C873.9,480.9,877.3,476.9,881.1,471.5z M913.5,458.6
					c6.3,3,12.6,4.7,18.9,5.1c6.3,0.5,11.9-0.1,16.8-1.7c1.9-0.6,3.6-1.4,5.1-2.2c-9.5,1.8-18.9,1.9-28.2,0.3
					c-9.3-1.6-19.1-6.3-29.2-14.1C901.7,451.4,907.2,455.6,913.5,458.6z M919.4,453.5c5.3,1.9,10.5,2.8,15.5,2.8
					c5,0,9.4-0.9,13.1-2.6c-1.8,0.1-3,0.2-3.6,0.3c-7.2,0.4-13.7,0.1-19.6-0.8c-5.9-1-12.6-3.9-20-8.7
					C909.2,448.5,914.1,451.6,919.4,453.5z"/>
				<path d="M894.7,501.8c-3,2.4-5.4,5.3-7.2,8.7c-1.8,3.5-2.5,6.6-2.3,9.5c0.3,3.4,2.1,5.6,5.4,6.5c1.1,0.3,2.2,0.3,3.3,0.2
					c2.4-0.2,5.1-1.4,7.9-3.7c2.9-2.2,6.3-5.9,10.4-11.2c4.4-5.6,8.8-10.2,13.2-13.7c4.4-3.5,9.3-5.5,14.6-6
					c2.3-0.2,4.6-0.1,6.8,0.4c6.9,1.1,12.9,4.5,18,10.1c5.1,5.6,8.1,13.7,9,24.1c1.2,13.2-4.2,23.1-16.2,29.6l-17.4-15.7
					c4-1.4,7-3.2,8.9-5.3c1.9-2.1,2.8-4.2,2.6-6.3c-0.2-1.7-1-3.2-2.6-4.3c-1.6-1.1-3.4-1.6-5.6-1.4c-2.3,0.2-5.3,1.9-8.9,5.1
					c-3.7,3.2-8.3,7.8-14.1,13.8c-8.4,8.5-16.6,13.1-24.7,13.8c-3.3,0.3-7-0.1-10.9-1.3c-5.8-1.9-11.1-5.6-15.7-11
					c-4.7-5.4-7.3-12.1-8-19.9c-0.6-7,0.1-13.4,2.1-19c2-5.7,4.4-10.2,7.1-13.6L894.7,501.8z M905.3,534.3c-3.3,2.2-6.6,3.4-9.7,3.7
					c-1.4,0.1-3.5,0-6.3-0.5c-3.3-0.6-6-2.5-8.1-5.4c-2.1-3-3.3-6.3-3.6-9.8c-0.1-1-0.1-1.8,0-2.4c-0.3,2.3-0.3,4-0.2,5.1
					c0.3,3.3,1.4,6.3,3.4,8.8c2,2.5,4.7,4.5,8.3,5.8c2.2,0.9,4.4,1.2,6.9,1c6.2-0.5,13.5-5.2,21.9-13.9c6-6.3,10.9-10.9,14.5-13.8
					c3.6-2.9,6.9-4.7,9.7-5.4c0.6-0.2,1.4-0.3,2.6-0.4c6.9-0.6,12,2.9,15.3,10.5c-1.3-4.5-3.4-7.8-6.2-9.7c-2.8-2-6.7-2.8-11.8-2.4
					c-6.6,0.6-14.9,6.6-25,18.2C912.5,528.5,908.6,532.1,905.3,534.3z M903.6,528.1c-3.2,2.6-6.2,4-8.8,4.3
					c-2.1,0.2-4.3-0.3-6.5-1.3c-1.9-1-3.5-2.4-4.7-4.4c-1.2-1.9-1.9-4.1-2.1-6.5c-0.4-4.3,0.7-8.5,3.2-12.6
					c-1.6,1.8-2.7,3.8-3.4,6.1c-0.7,2.3-0.9,4.7-0.7,7.1c0.2,2.8,1,5.2,2.4,7.4c1.4,2.2,3.2,3.8,5.5,4.9c2.4,1.1,4.8,1.5,7.1,1.3
					c3-0.3,6.2-1.6,9.6-4.2c3.4-2.5,7.4-6.4,11.9-11.8c5.4-6.2,10-10.5,13.9-13.1c3.9-2.6,7.5-4.1,11-4.4c5.7-0.5,11.2,1.2,16.3,5.1
					c5.1,3.9,8.3,11.7,9.7,23.4c-0.3-8.2-1.9-14.6-4.8-19.3c-3-4.7-6.4-7.8-10.4-9.4c-4-1.6-7.7-2.3-11.3-2
					c-7.9,0.7-16.3,6.2-25.1,16.5C911,521.2,906.8,525.5,903.6,528.1z"/>
			</g>
		</g>
	</g>
	<g>
		<g>
			<path class="st5" d="M601.3,336.8l-2.8-15.5l-4.5-3.5c-1.8-1.4-44.6-34.3-96-49.6c-26.8-8-49.3-4.4-63.5,0.1
				c-14.8,4.6-23.9,11.1-25.6,12.3l-7.5,5.6l1.8,9.1c3.7,18.4,14,34.1,30.6,46.6c9.5,7.2,21.1,13.3,34.6,18.3 M516.9,380.1"/>
			<path class="st6" d="M580.4,332.2c-7.9-5.8-45.3-32.4-88-45.1c-17.5-5.2-34.9-5.3-51.6-0.1c-8.2,2.5-14.2,5.7-17.4,7.7
				c4.9,18.6,19.5,33.2,43.5,43.7c-12.3-7-22.7-15.6-27.9-25.9l-1.9-3.7l3.3-2.5c0.9-0.7,21.6-15.9,64.2-0.7
				c40.9,14.6,70.2,36.8,71.5,37.8l1.5,1.1l0.4,1.8c0.1,0.5,2.2,11.8,1.4,29.4 M466.8,408.8c0.7-3.3,4.1-16.5,12.3-20.9
				c3.3-1.7,6.9-1.9,10.4-0.4c6.3,2.6,14.8,10.7,22.6,21.8c3.7,5.2,6.8,10.4,9.3,15.4c-4.1-11.5-10.4-21.8-18.7-30.9
				c-7-7.6-13.5-12.1-16.2-13.7c-12.7,1-30.1-1-36.2-1.8"/>
			<path class="st5" d="M568.6,350c-6.6-4.7-33-23-67.2-35.2c-19.5-7-33.5-6.8-41.7-5.4c-4,0.7-7.1,1.7-9.3,2.6
				c8.1,11.3,25.2,24.5,50.5,33.5c20.4,7.2,39.5,8.3,42.4,8.8l2.8,0.1l1.2,3"/>
			<g>
				<path class="st5" d="M440.9,287c-8.2,2.5-14.2,5.7-17.4,7.7c0.8,3.1,1.9,6,3.2,8.9c5.3-4.5,23.5-17.1,55.5-13.9
					c38.6,3.9,98.3,42.6,98.3,42.6c-7.9-5.8-45.3-32.4-88-45.1C474.9,281.9,457.6,281.9,440.9,287z"/>
			</g>
		</g>
	</g>
	<path class="st9" d="M474.8,416.1 M509.7,386.8c-10.1-10.9-19.2-15.9-19.6-16.1l-0.6-0.3c-0.5-0.3-1.1-0.4-1.6-0.3l-0.7,0.1
		c-14,1.5-37.3-1.9-37.5-1.9l-0.9-0.1c-0.7-0.1-1.4,0.1-2,0.5l-0.7,0.5 M591.4,339.8l-1.7-11.9c-0.1-0.7-0.5-1.4-1-1.8l-0.6-0.5
		c-1.7-1.3-43.1-33.1-92.7-47.9c-24.4-7.3-44.8-4-57.7,0c-14,4.4-22.3,10.5-22.6,10.8l-1.1,0.8c-0.8,0.6-1.3,1.7-1,2.8l0.3,1.3
		c3.2,16,12.3,29.7,26.9,40.7c11.4,8.6,34.1,17.7,51.9,22.9 M579.3,375.7c0.9-17.5-1.3-28.9-1.4-29.4l-0.2-0.8
		c-0.1-0.7-0.5-1.3-1-1.7l-0.7-0.5c-1.2-0.9-30.6-23.2-71.5-37.8c-42.6-15.2-63.3,0.1-64.2,0.7l-1.4,1.1c-1.1,0.8-1.4,2.3-0.8,3.5
		l0.8,1.6c0.1,0.1,0.1,0.2,0.2,0.3c1.5,2.9-2.4,5.6-4.6,3.1c-4.9-5.8-8.4-12.1-10.5-19c-0.4-1.3,0.2-2.6,1.3-3.2
		c3.4-1.9,8.7-4.5,15.5-6.6c16.7-5.1,34-5.1,51.6,0.1c42.7,12.7,80.1,39.3,88,45.1 M547.3,357.5l-0.5-1.3c-0.4-1-1.4-1.7-2.5-1.7
		l-0.8,0c-0.2,0-0.3,0-0.5,0c-3.5-0.7-21.9-4.4-41.8-11.5c-23-8.1-39.5-17.6-48.4-27.7c-1.3-1.5-0.6-3.9,1.3-4.5
		c1.6-0.5,3.4-0.9,5.5-1.3c8.3-1.4,22.2-1.6,41.7,5.4c34.2,12.2,60.7,30.4,67.2,35.2"/>
	<polygon class="st6" points="580.4,332.2 581.7,341.9 579.5,363.8 577.8,345.5 573.6,341.4 	"/>
	<polygon class="st5" points="559.4,343.8 568.6,350 568.6,354.5 547.9,359 545.3,354.5 538.1,353.4 530.2,351.5 524.1,350 
		554.2,343.8 	"/>
	<polygon class="st9" points="521.9,349.4 530.2,351.5 539.6,353.6 545.3,354.5 548.1,363.8 518.1,356.6 	"/>
</g>
</svg>
